<svg xmlns="http://www.w3.org/2000/svg" version="1.1" xmlns:xlink="http://www.w3.org/1999/xlink" xmlns:svgjs="http://svgjs.dev/svgjs" viewBox="0 0 1422 800"><defs><linearGradient x1="50%" y1="0%" x2="50%" y2="100%" id="oooscillate-grad"><stop stop-color="#3b3dbf" stop-opacity="1" offset="0%"></stop><stop stop-color="#9321fd" stop-opacity="1" offset="100%"></stop></linearGradient></defs><g stroke-width="2" stroke="url(#oooscillate-grad)" fill="none" stroke-linecap="round"><path d="M 0 1890 Q 355.5 -100 711 400 Q 1066.5 900 1422 1890" opacity="1.00"></path><path d="M 0 1820 Q 355.5 -100 711 400 Q 1066.5 900 1422 1820" opacity="0.96"></path><path d="M 0 1750 Q 355.5 -100 711 400 Q 1066.5 900 1422 1750" opacity="0.93"></path><path d="M 0 1680 Q 355.5 -100 711 400 Q 1066.5 900 1422 1680" opacity="0.89"></path><path d="M 0 1610 Q 355.5 -100 711 400 Q 1066.5 900 1422 1610" opacity="0.85"></path><path d="M 0 1540 Q 355.5 -100 711 400 Q 1066.5 900 1422 1540" opacity="0.82"></path><path d="M 0 1470 Q 355.5 -100 711 400 Q 1066.5 900 1422 1470" opacity="0.78"></path><path d="M 0 1400 Q 355.5 -100 711 400 Q 1066.5 900 1422 1400" opacity="0.74"></path><path d="M 0 1330 Q 355.5 -100 711 400 Q 1066.5 900 1422 1330" opacity="0.71"></path><path d="M 0 1260 Q 355.5 -100 711 400 Q 1066.5 900 1422 1260" opacity="0.67"></path><path d="M 0 1190 Q 355.5 -100 711 400 Q 1066.5 900 1422 1190" opacity="0.63"></path><path d="M 0 1120 Q 355.5 -100 711 400 Q 1066.5 900 1422 1120" opacity="0.60"></path><path d="M 0 1050 Q 355.5 -100 711 400 Q 1066.5 900 1422 1050" opacity="0.56"></path><path d="M 0 980 Q 355.5 -100 711 400 Q 1066.5 900 1422 980" opacity="0.53"></path><path d="M 0 910 Q 355.5 -100 711 400 Q 1066.5 900 1422 910" opacity="0.49"></path><path d="M 0 840 Q 355.5 -100 711 400 Q 1066.5 900 1422 840" opacity="0.45"></path><path d="M 0 770 Q 355.5 -100 711 400 Q 1066.5 900 1422 770" opacity="0.42"></path><path d="M 0 700 Q 355.5 -100 711 400 Q 1066.5 900 1422 700" opacity="0.38"></path><path d="M 0 630 Q 355.5 -100 711 400 Q 1066.5 900 1422 630" opacity="0.34"></path><path d="M 0 560 Q 355.5 -100 711 400 Q 1066.5 900 1422 560" opacity="0.31"></path><path d="M 0 490 Q 355.5 -100 711 400 Q 1066.5 900 1422 490" opacity="0.27"></path><path d="M 0 420 Q 355.5 -100 711 400 Q 1066.5 900 1422 420" opacity="0.23"></path><path d="M 0 350 Q 355.5 -100 711 400 Q 1066.5 900 1422 350" opacity="0.20"></path><path d="M 0 280 Q 355.5 -100 711 400 Q 1066.5 900 1422 280" opacity="0.16"></path><path d="M 0 210 Q 355.5 -100 711 400 Q 1066.5 900 1422 210" opacity="0.12"></path><path d="M 0 140 Q 355.5 -100 711 400 Q 1066.5 900 1422 140" opacity="0.09"></path></g></svg>