<svg width="2096" height="2096" viewBox="0 0 2096 2096" fill="none" xmlns="http://www.w3.org/2000/svg">
<g clip-path="url(#clip0_3_15)">
<g clip-path="url(#clip1_3_15)">
<path d="M1392.33 1766.13V1762.36H1394.32C1394.61 1762.36 1394.86 1762.39 1395.07 1762.46C1395.28 1762.52 1395.46 1762.61 1395.59 1762.73C1395.73 1762.85 1395.84 1762.99 1395.91 1763.16C1395.97 1763.33 1396.01 1763.52 1396.01 1763.74C1396.01 1763.94 1395.98 1764.12 1395.91 1764.29C1395.84 1764.46 1395.74 1764.61 1395.6 1764.73C1395.46 1764.86 1395.28 1764.96 1395.07 1765.02C1394.86 1765.09 1394.61 1765.13 1394.32 1765.13L1393.1 1765.13V1766.13H1392.33ZM1393.1 1764.47H1394.34C1394.48 1764.47 1394.61 1764.45 1394.71 1764.42C1394.82 1764.38 1394.91 1764.33 1394.99 1764.27C1395.06 1764.21 1395.11 1764.13 1395.15 1764.04C1395.19 1763.95 1395.21 1763.85 1395.21 1763.74C1395.21 1763.51 1395.13 1763.34 1394.99 1763.22C1394.84 1763.09 1394.62 1763.03 1394.34 1763.03H1393.1V1764.47ZM1396.34 1764.71C1396.34 1764.5 1396.38 1764.31 1396.46 1764.13C1396.54 1763.96 1396.66 1763.8 1396.81 1763.67C1396.97 1763.53 1397.15 1763.43 1397.37 1763.35C1397.59 1763.27 1397.83 1763.23 1398.1 1763.23C1398.37 1763.23 1398.62 1763.27 1398.84 1763.35C1399.05 1763.43 1399.24 1763.53 1399.39 1763.67C1399.55 1763.8 1399.66 1763.96 1399.75 1764.13C1399.83 1764.31 1399.87 1764.5 1399.87 1764.71C1399.87 1764.91 1399.83 1765.1 1399.75 1765.28C1399.66 1765.46 1399.55 1765.61 1399.39 1765.75C1399.24 1765.88 1399.05 1765.99 1398.84 1766.06C1398.62 1766.14 1398.37 1766.18 1398.1 1766.18C1397.83 1766.18 1397.59 1766.14 1397.37 1766.06C1397.15 1765.99 1396.97 1765.88 1396.81 1765.75C1396.66 1765.61 1396.54 1765.46 1396.46 1765.28C1396.38 1765.1 1396.34 1764.91 1396.34 1764.71ZM1397.08 1764.71C1397.08 1764.82 1397.11 1764.93 1397.15 1765.03C1397.2 1765.13 1397.27 1765.22 1397.35 1765.3C1397.44 1765.38 1397.55 1765.44 1397.67 1765.48C1397.8 1765.53 1397.94 1765.55 1398.1 1765.55C1398.26 1765.55 1398.41 1765.53 1398.53 1765.48C1398.66 1765.44 1398.77 1765.38 1398.85 1765.3C1398.94 1765.22 1399.01 1765.13 1399.05 1765.03C1399.1 1764.93 1399.12 1764.82 1399.12 1764.71C1399.12 1764.59 1399.1 1764.48 1399.05 1764.38C1399.01 1764.28 1398.94 1764.19 1398.85 1764.11C1398.77 1764.03 1398.66 1763.97 1398.53 1763.93C1398.41 1763.88 1398.26 1763.86 1398.1 1763.86C1397.94 1763.86 1397.8 1763.88 1397.67 1763.93C1397.55 1763.97 1397.44 1764.03 1397.35 1764.11C1397.27 1764.19 1397.2 1764.28 1397.15 1764.38C1397.11 1764.48 1397.08 1764.59 1397.08 1764.71ZM1400.34 1766.13V1763.29H1401.06V1763.69C1401.21 1763.58 1401.38 1763.48 1401.55 1763.39C1401.73 1763.31 1401.9 1763.24 1402.08 1763.2L1402.29 1763.85C1402.01 1763.88 1401.77 1763.94 1401.56 1764.03C1401.35 1764.13 1401.19 1764.26 1401.06 1764.44V1766.13H1400.34ZM1403 1766.13V1763.82H1402.31V1763.29H1403V1762.4H1403.71V1763.29H1404.4V1763.82H1403.71V1766.13H1403ZM1405.09 1766.13V1763.82H1404.61V1763.29H1405.09C1405.09 1763.09 1405.12 1762.92 1405.18 1762.77C1405.23 1762.62 1405.31 1762.5 1405.41 1762.39C1405.52 1762.29 1405.64 1762.21 1405.79 1762.15C1405.94 1762.1 1406.11 1762.07 1406.29 1762.07C1406.42 1762.07 1406.55 1762.08 1406.68 1762.11C1406.8 1762.13 1406.91 1762.17 1407.01 1762.22L1406.76 1762.82C1406.72 1762.79 1406.66 1762.77 1406.59 1762.75C1406.52 1762.73 1406.45 1762.72 1406.36 1762.72C1406.2 1762.72 1406.07 1762.77 1405.97 1762.86C1405.87 1762.96 1405.81 1763.1 1405.81 1763.29H1406.71V1763.82H1405.81V1766.13H1405.09ZM1406.84 1764.71C1406.84 1764.5 1406.88 1764.31 1406.96 1764.13C1407.04 1763.96 1407.16 1763.8 1407.32 1763.67C1407.47 1763.53 1407.65 1763.43 1407.87 1763.35C1408.09 1763.27 1408.33 1763.23 1408.6 1763.23C1408.88 1763.23 1409.12 1763.27 1409.34 1763.35C1409.56 1763.43 1409.74 1763.53 1409.89 1763.67C1410.05 1763.8 1410.16 1763.96 1410.25 1764.13C1410.33 1764.31 1410.37 1764.5 1410.37 1764.71C1410.37 1764.91 1410.33 1765.1 1410.25 1765.28C1410.16 1765.46 1410.05 1765.61 1409.89 1765.75C1409.74 1765.88 1409.56 1765.99 1409.34 1766.06C1409.12 1766.14 1408.88 1766.18 1408.6 1766.18C1408.33 1766.18 1408.09 1766.14 1407.87 1766.06C1407.65 1765.99 1407.47 1765.88 1407.32 1765.75C1407.16 1765.61 1407.04 1765.46 1406.96 1765.28C1406.88 1765.1 1406.84 1764.91 1406.84 1764.71ZM1407.59 1764.71C1407.59 1764.82 1407.61 1764.93 1407.65 1765.03C1407.7 1765.13 1407.77 1765.22 1407.85 1765.3C1407.94 1765.38 1408.05 1765.44 1408.17 1765.48C1408.3 1765.53 1408.44 1765.55 1408.6 1765.55C1408.76 1765.55 1408.91 1765.53 1409.03 1765.48C1409.16 1765.44 1409.27 1765.38 1409.35 1765.3C1409.44 1765.22 1409.51 1765.13 1409.55 1765.03C1409.6 1764.93 1409.62 1764.82 1409.62 1764.71C1409.62 1764.59 1409.6 1764.48 1409.55 1764.38C1409.51 1764.28 1409.44 1764.19 1409.35 1764.11C1409.27 1764.03 1409.16 1763.97 1409.03 1763.93C1408.91 1763.88 1408.76 1763.86 1408.6 1763.86C1408.44 1763.86 1408.3 1763.88 1408.17 1763.93C1408.05 1763.97 1407.94 1764.03 1407.85 1764.11C1407.77 1764.19 1407.7 1764.28 1407.65 1764.38C1407.61 1764.48 1407.59 1764.59 1407.59 1764.71ZM1407.88 1762.95L1407.65 1762.45L1409.3 1761.68L1409.56 1762.23L1407.88 1762.95ZM1410.86 1766.13V1762.13H1411.58V1766.13H1410.86ZM1412.62 1762.9C1412.55 1762.9 1412.48 1762.89 1412.43 1762.87C1412.37 1762.85 1412.32 1762.82 1412.28 1762.79C1412.24 1762.75 1412.21 1762.71 1412.19 1762.67C1412.17 1762.62 1412.16 1762.57 1412.16 1762.52C1412.16 1762.47 1412.17 1762.42 1412.19 1762.37C1412.21 1762.33 1412.24 1762.29 1412.28 1762.25C1412.32 1762.22 1412.37 1762.19 1412.43 1762.17C1412.48 1762.15 1412.55 1762.14 1412.62 1762.14C1412.69 1762.14 1412.76 1762.15 1412.81 1762.17C1412.87 1762.19 1412.92 1762.22 1412.96 1762.25C1413 1762.29 1413.03 1762.33 1413.05 1762.37C1413.07 1762.42 1413.08 1762.47 1413.08 1762.52C1413.08 1762.57 1413.07 1762.62 1413.05 1762.67C1413.03 1762.71 1413 1762.75 1412.96 1762.79C1412.92 1762.82 1412.87 1762.85 1412.81 1762.87C1412.76 1762.89 1412.69 1762.9 1412.62 1762.9ZM1412.26 1766.13V1763.29H1412.97V1766.13H1412.26ZM1413.47 1764.71C1413.47 1764.5 1413.51 1764.31 1413.59 1764.13C1413.68 1763.96 1413.79 1763.8 1413.95 1763.67C1414.1 1763.53 1414.29 1763.43 1414.5 1763.35C1414.72 1763.27 1414.97 1763.23 1415.24 1763.23C1415.51 1763.23 1415.75 1763.27 1415.97 1763.35C1416.19 1763.43 1416.37 1763.53 1416.53 1763.67C1416.68 1763.8 1416.8 1763.96 1416.88 1764.13C1416.96 1764.31 1417 1764.5 1417 1764.71C1417 1764.91 1416.96 1765.1 1416.88 1765.28C1416.8 1765.46 1416.68 1765.61 1416.53 1765.75C1416.37 1765.88 1416.19 1765.99 1415.97 1766.06C1415.75 1766.14 1415.51 1766.18 1415.24 1766.18C1414.97 1766.18 1414.72 1766.14 1414.5 1766.06C1414.29 1765.99 1414.1 1765.88 1413.95 1765.75C1413.79 1765.61 1413.68 1765.46 1413.59 1765.28C1413.51 1765.1 1413.47 1764.91 1413.47 1764.71ZM1414.22 1764.71C1414.22 1764.82 1414.24 1764.93 1414.29 1765.03C1414.33 1765.13 1414.4 1765.22 1414.49 1765.3C1414.57 1765.38 1414.68 1765.44 1414.81 1765.48C1414.93 1765.53 1415.08 1765.55 1415.24 1765.55C1415.4 1765.55 1415.54 1765.53 1415.67 1765.48C1415.79 1765.44 1415.9 1765.38 1415.99 1765.3C1416.07 1765.22 1416.14 1765.13 1416.19 1765.03C1416.23 1764.93 1416.26 1764.82 1416.26 1764.71C1416.26 1764.59 1416.23 1764.48 1416.19 1764.38C1416.14 1764.28 1416.07 1764.19 1415.99 1764.11C1415.9 1764.03 1415.79 1763.97 1415.67 1763.93C1415.54 1763.88 1415.4 1763.86 1415.24 1763.86C1415.08 1763.86 1414.93 1763.88 1414.81 1763.93C1414.68 1763.97 1414.57 1764.03 1414.49 1764.11C1414.4 1764.19 1414.33 1764.28 1414.29 1764.38C1414.24 1764.48 1414.22 1764.59 1414.22 1764.71Z" fill="black"/>
</g>
<g clip-path="url(#clip2_3_15)">
<path fill-rule="evenodd" clip-rule="evenodd" d="M794.789 29.1284C861.463 12.6749 953.321 0 1048 0C1625.21 0 2096 470.765 2096 1048C2096 1625.23 1625.21 2096 1048 2096C470.789 2096 0 1625.21 0 1048C0 701.186 169.939 392.803 424.92 209.16C559.394 121.464 728.497 65.9095 910.154 65.9095C1394.55 65.9095 1789.63 460.984 1789.63 945.405C1789.63 1074.07 1761.74 1196.42 1707.5 1309.99C1693.51 1121.99 1534.57 969.057 1341.01 969.057C1141.17 969.057 978.216 1132.01 978.216 1331.85C978.216 1531.66 1141.17 1694.59 1341.01 1694.59C1456.51 1694.59 1554.09 1636.02 1614.33 1559.18C1743.71 1394.14 1838.48 1182.07 1838.48 945.405C1838.48 434.08 1421.46 17.0513 910.154 17.0513C878.204 17.0274 846.588 18.6776 794.789 29.1284Z" fill="#6F5CF3"/>
</g>
</g>
<defs>
<clipPath id="clip0_3_15">
<rect width="2096" height="2096" fill="white"/>
</clipPath>
<clipPath id="clip1_3_15">
<rect width="24.6725" height="4.50269" fill="white" transform="translate(1392.33 1761.68)"/>
</clipPath>
<clipPath id="clip2_3_15">
<rect width="2096" height="2096" fill="white"/>
</clipPath>
</defs>
</svg>
