<svg xmlns="http://www.w3.org/2000/svg" version="1.1" xmlns:xlink="http://www.w3.org/1999/xlink" xmlns:svgjs="http://svgjs.dev/svgjs" viewBox="0 0 800 800"><defs><linearGradient x1="50%" y1="0%" x2="50%" y2="100%" id="wwwhirl-grad"><stop stop-color="#6f5cf3ff" stop-opacity="1" offset="45%"></stop><stop stop-color="#bab7cfff" stop-opacity="1" offset="100%"></stop></linearGradient></defs><g stroke-width="2" stroke="url(#wwwhirl-grad)" fill="none" stroke-linecap="round"><path d="M37.00000346183789 443.4053482635291C55.90625418305413 428.5166758205713 89.93750548124333 375.130150346537 127.75000692367581 371.93972053733177C165.56250836610826 368.74929072812654 180.6875089430812 432.1324962710039 218.50001038551363 428.09128517934397C256.31251182794614 424.050074087684 271.43751240491906 354.24346986227334 309.25001384735157 352.5419072973639C347.0625152897841 350.84034473245447 362.1875158667571 419.7110895471649 400.0000173091895 419.9237848677785C437.81251875162195 420.1364801883922 452.9375193285949 352.0739775920138 490.75002077102727 353.5628448363096C528.5625222134598 355.05171208060534 543.6875227904327 419.83870673953305 581.5000242328653 427.07034764039827C619.3125256752977 434.3019885412635 634.4375262522707 384.0208147481889 672.2500276947031 388.2747211604626C710.0625291371357 392.52862757273624 744.0937804353249 435.15276982371824 763.0000311565411 447.4890984193118 " transform="rotate(99, 400, 400)"></path><path d="M48.00000335693372 442.0900424247772C66.33333738962824 427.65254187403025 99.33333864847839 375.8837898992091 136.00000671386744 372.7900397811919C172.66667477925648 369.6962896631747 187.33334200541208 431.1587920077831 224.00001007080112 427.24004185829466C260.6666781361902 423.3212917088062 275.3333453623458 355.63003912658985 312.00001342773487 353.9800390636473C348.666681493124 352.3300390007048 363.33334871927957 419.1137915483028 400.0000167846686 419.3200415561706C436.66668485005766 419.5262915640384 451.33335207621326 353.52628904633815 488.00002014160225 354.97003910141285C524.6666882069914 356.4137891564875 539.333355433147 419.23754155302345 576.0000234985359 426.25004182052913C612.666691563925 433.2625420880348 627.3333587900806 384.5050402280837 664.0000268554697 388.63004038544C700.6666949208588 392.7550405427962 733.666696179709 434.08754211950605 752.0000302124035 446.05004257583926 " transform="rotate(96, 400, 400)"></path><path d="M59.00000325202954 440.7747251419335C76.76042059620237 426.78839648339743 108.72917181571344 376.63741800778945 144.25000650405906 373.6403475809603C179.7708411924047 370.6432771541311 193.97917506774294 430.1850763004705 229.50000975608862 426.38878709315355C265.02084444443426 422.59249788583656 279.2291783197725 357.0165969468145 314.7500130081181 355.418159385839C350.2708476964638 353.8197218248634 364.47918157180214 418.5164821053489 400.00001626014773 418.71628680047087C435.5208509484933 418.9160914955928 449.7291848238316 354.9785890565707 485.25001951217723 356.37722192242427C520.7708542005229 357.7758547882779 534.9791880758611 418.6363649224221 570.5000227642067 425.4297245565682C606.0208574525524 432.2230841907143 620.2291913278907 384.98925426388666 655.7500260162363 388.9853481663256C691.270860704582 392.98144206876447 723.2396119240931 433.02230297120207 741.0000292682658 444.61097528827486 " transform="rotate(93, 400, 400)"></path><path d="M70.00000314712535 439.45941167378714C87.18750380277648 425.9242549074619 118.1250049829485 377.391049931067 152.50000629425074 374.4906591954259C186.87500760555298 371.59026845978474 200.62500813007384 429.21136440785517 235.00000944137605 425.5375361427097C269.37501075267835 421.86370787756425 283.1250112771992 358.4031585817364 317.5000125885015 356.85628352272784C351.8750138998037 355.30940846371925 365.6250144243246 417.9191764770924 400.00001573562685 418.11253585946844C434.3750170469291 418.3058952418445 448.12501757144986 356.4308928815005 482.5000188827521 357.784408558133C516.8750201940544 359.13792423476553 530.6250207185753 418.03519210651797 565.0000220298775 424.60941110730454C599.3750233411798 431.1836301080911 613.1250238657007 385.47347211438694 647.5000251770028 389.34065976190846C681.8750264883051 393.20784740943 712.8125276684772 431.9570676375954 730.0000283241283 443.1719118154077 " transform="rotate(90, 400, 400)"></path><path d="M81.00000304222118 438.1440982056407C97.6145870093506 425.0601133315263 127.52083815018355 378.1446818543446 160.75000608444236 375.34097080989153C193.9791740187012 372.5372597654384 207.2708411924047 428.2376525152398 240.50000912666354 424.68628519226587C273.7291770609223 421.13491786929194 287.0208442346259 359.7897202166584 320.2500121688847 358.29440765961675C353.47918010314356 356.79909510257505 366.7708472768471 417.3218708488358 400.00001521110596 417.50878491846595C433.22918314536474 417.6956989880962 446.52085031906824 357.8831967064303 479.7500182533271 359.19159519384175C512.9791861875859 360.49999368125316 526.2708533612894 417.4340192906139 559.5000212955483 423.7890976580409C592.7291892298072 430.1441760254679 606.0208564035106 385.9576899648872 639.2500243377694 389.6959713574913C672.4791922720283 393.4342527500954 702.3854434128613 430.89183230398874 719.0000273799907 441.73284834254065 " transform="rotate(87, 400, 400)"></path><path d="M92.000002937317 436.8287847374943C108.04167021592471 424.1959717555907 136.9166713174186 378.8983137776222 169.000005874634 376.19128242435715C201.08334043184942 373.4842510710921 213.91667425473557 427.26394062262443 246.00000881195098 423.83503424182203C278.0833433691664 420.4061278610196 290.9166771920526 361.1762818515803 323.000011749268 359.7325317965056C355.08334630648346 358.2887817414309 367.91668012936964 416.72456522057917 400.000014686585 416.9050339774635C432.08334924380046 417.0855027343478 444.9166830666866 359.3355005313601 477.000017623902 360.59878182955043C509.08335218111745 361.8620631277408 521.9166860040036 416.83284647470975 554.000020561219 422.9687842087772C586.0833551184345 429.10472194284466 598.9166889413207 386.4419078153875 631.000023498536 390.0512829530742C663.0833580557514 393.66065809076093 691.9583591572455 429.826596970382 708.0000264358531 440.2937848696735 " transform="rotate(84, 400, 400)"></path><path d="M103.00000283241282 435.51347126934786C118.46875342249884 423.3318301796551 146.31250448465363 379.6519457008998 177.25000566482566 377.0415940388227C208.18750684499767 374.43124237674573 220.56250731706643 426.29022873000906 251.50000849723844 422.9837832913782C282.4375096774105 419.6773378527473 294.8125101494793 362.56284348650223 325.75001132965133 361.1706559333945C356.68751250982336 359.77846838028677 369.06251298189216 416.12725959232256 400.00001416206413 416.30128303646103C430.93751534223617 416.4753064805995 443.3125158143049 360.7878043562899 474.2500169944769 362.0059684652592C505.187518174649 363.2241325742284 517.5625186467178 416.2316736588056 548.5000198268897 422.14847075951354C579.4375210070618 428.06526786022147 591.8125214791305 386.9261256658877 622.7500226593027 390.40659454865704C653.6875238394746 393.8870634314264 681.5312749016294 428.7613616367753 697.0000254917154 438.85472139680644 " transform="rotate(81, 400, 400)"></path><path d="M114.00000272750864 434.19815780120143C128.89583662907296 422.4676886037196 155.70833765188868 380.40557762417734 185.5000054550173 377.89190565328835C215.29167325814592 375.3782336823994 227.20834037939733 425.31651683739375 257.0000081825259 422.13253234093435C286.79167598565454 418.948547844475 298.70834310690594 363.9494051214242 328.5000109100346 362.6087800702834C358.2916787131632 361.2681550191426 370.2083458344147 415.52995396406595 400.00001363754325 415.69753209545854C429.7916814406718 415.86511022685113 441.7083485619233 362.2401081812197 471.50001636505186 363.41315510096786C501.2916841681805 364.5862020207161 513.2083512894319 415.63050084290154 543.0000190925605 421.3281573102499C572.7916868956892 427.0258137775982 584.7083540169406 387.41034351638797 614.5000218200692 390.7619061442399C644.2916896231977 394.1134687720919 671.1041906460135 427.6961263031686 686.0000245475778 437.4156579239393 " transform="rotate(78, 400, 400)"></path><path d="M125.00000262260447 432.882844333055C139.32291983564707 421.603547027784 165.10417081912374 381.1592095474549 193.75000524520894 378.742217267754C222.39583967129414 376.32522498805304 233.8541734417282 424.3428049447784 262.50000786781334 421.2812813904905C291.14584229389857 418.21975783620263 302.60417606433265 365.3359667563461 331.2500104904179 364.0469042071723C359.89584491650305 362.7578416579985 371.3541786869372 414.9326483358094 400.00001311302236 415.0937811544561C428.64584753910754 415.2549139731028 440.1041813095416 363.6924120061495 468.75001573562673 364.8203417366766C497.39585016171196 365.9482714672037 508.85418393214604 415.0293280269974 537.5000183582313 420.5078438609862C566.1458527843165 425.986359694975 577.6041865547505 387.89456136688824 606.2500209808358 391.1172177398228C634.8958554069209 394.3398741127574 660.6771063903976 426.63089096956196 675.0000236034402 435.97659445107223 " transform="rotate(75, 400, 400)"></path><path d="M136.0000025177003 431.5675308649086C149.75000304222118 420.73940545184837 174.5000039863588 381.91284147073253 202.0000050354006 379.5925288822196C229.50000608444236 377.2722162937067 240.50000650405906 423.369093052163 268.0000075531009 420.43003044004666C295.50000860214266 417.4909678279303 306.50000902175935 366.72252839126804 334.0000100708011 365.48502834406116C361.50001111984295 364.2475282968543 372.5000115394597 414.3353427075528 400.0000125885015 414.4900302134537C427.50001363754325 414.6447177193545 438.5000140571599 365.1447158310793 466.0000151062017 366.22752837238534C493.5000161552435 367.31034091369133 504.5000165748602 414.4281552110933 532.0000176239021 419.68753041172255C559.5000186729437 424.94690561235177 570.5000190925605 388.37877921738846 598.0000201416022 391.4725293354057C625.5000211906441 394.56627945342285 650.2500221347817 425.56565563595524 664.0000226593027 434.5375309782051 " transform="rotate(72, 400, 400)"></path><path d="M146.99998715400704 430.2522135820649C160.17707099000626 419.87526006121556 183.89582189480478 382.66646957931283 210.24998956680315 380.44283668198796C236.60415723880152 378.21920378466314 247.14582430760086 422.3953773448504 273.49999197959926 419.57877567490556C299.8541596515977 416.76217400496074 310.39582672039694 368.10908621149275 336.74999439239537 366.9231486662528C363.1041620643938 365.7372111210129 373.64582913319316 413.7380332645989 399.99999680519153 413.8862754577539C426.3541644771899 414.0345176509089 436.8958315459892 366.5970158413118 463.2499992179876 367.63471119339675C489.60416688998595 368.6724065454817 500.14583395878526 413.8269785804919 526.5000016307838 418.8672131477616C552.8541693027821 423.9074477150313 563.3958363715815 388.86299325319146 589.7500040435798 391.8278371162913C616.1041717155782 394.7926809793911 639.8229226203769 424.50041648765125 653.000006456376 433.09846369064076 " transform="rotate(69, 400, 400)"></path><path d="M157.99998704910286 428.9369039286157C170.60415419658034 419.0111222999772 193.29165506203984 383.42010531728766 218.4999893569948 381.29315211115085C243.70832365194977 379.166198905014 253.79165736993173 421.4216692669323 278.9999916648867 418.727528539159C304.20832595984166 416.0333878113857 314.29165967782365 369.49565166111194 339.49999397277867 368.36127661783894C364.7083282677337 367.226901574566 374.7916619857157 413.1407314510396 399.99999628067064 413.2825283314487C425.20833057562555 413.4243252118578 435.29166429360754 368.0493234809389 460.49999858856245 369.04190164380276C485.70833288351747 370.0344798066666 495.7916666014994 413.22580957928506 521.0000008964544 418.0469035131952C546.2083351914093 422.8679974471053 556.2916689093914 389.347214918389 581.5000032043464 392.1831525265714C606.7083374993014 395.0190901347538 629.395838364761 423.43518496874185 642.0000055122383 431.6594040324709 " transform="rotate(66, 400, 400)"></path><path d="M168.9999869441987 427.6215885531207C181.03123740315448 418.14697881669304 202.6874882292749 384.17373533321665 226.74998914718645 382.14346181826784C250.81249006509802 380.1131883033191 260.4374904322626 420.4479554669683 284.4999913501742 417.8762756813665C308.56249226808575 415.3045958957647 318.18749263525035 370.8822113886852 342.24999355316197 369.7993988473792C366.31249447107353 368.71658630607317 375.9374948382382 412.54342391543435 399.9999957561497 412.67877548309764C424.06249667406126 412.8141270507609 433.68749704122587 369.50162539852005 457.74999795913743 370.4490863721628C481.812498877049 371.3965473458056 491.4374992442136 412.62463485603234 515.5000001621252 417.2265881565829C539.5625010800368 421.8285414571335 549.1875014472014 389.8314308615406 573.250002365113 392.53846221480563C597.3125032830245 395.2454935680707 618.9687541091449 422.3699477277865 631.0000045681007 430.2203386522552 " transform="rotate(63, 400, 400)"></path><path d="M179.9999868392945 426.3062750849743C191.4583206097286 417.28283724075743 212.08332139650992 384.9273672564942 234.99998893737808 382.99377343273346C257.91665647824624 381.0601796089727 267.0833234945935 419.47424357435295 289.9999910354616 417.02502473092267C312.91665857632984 414.5758058874924 322.08332559267706 372.2687730236072 344.9999931335452 371.2375229842681C367.91666067441344 370.206272944929 377.0833276907607 411.9461182871778 399.9999952316288 412.07502454209515C422.916662772497 412.20393079701256 432.0833297888442 370.95392922344985 454.99999732971236 371.85627300787155C477.9166648705805 372.75861679229325 487.0833318869278 412.0234620401282 509.99999942779596 416.40627470731926C532.9166669686641 420.7890873745103 542.0833339850113 390.31564871204085 565.0000015258795 392.8937738103885C587.9166690667477 395.4718989087362 608.5416698535291 421.30471239417983 620.000003623963 428.78127517938805 " transform="rotate(60, 400, 400)"></path><path d="M190.99998673439035 424.9909635241765C201.8854038163027 416.4186975721705 221.479154563745 385.6810010871204 243.24998872756973 383.8440869545477C265.02082289139446 382.007172821975 273.72915655692435 418.5005335890862 295.4999907207491 416.17377568782746C317.27082488457387 413.8470177865687 325.97915855010376 373.65533656587775 347.7499927139285 372.67564902850563C369.5208268777533 371.6959614911335 378.22916054328323 411.3488145662698 399.99999470710793 411.47127550844135C421.77082887093263 411.5937364506128 430.4791625364625 372.4062349557283 452.2499967002873 373.2634615509289C474.02083086411204 374.1206881461295 482.72916452964193 411.4222911315727 504.4999986934667 415.5859631654042C526.2708328572915 419.7496351992357 534.9791665228213 390.7998684698897 556.7500006866461 393.24908731332C578.5208348504709 395.6983061567503 598.1145855979132 420.23947896792174 609.0000026798255 427.34221361386955 " transform="rotate(57, 400, 400)"></path><path d="M201.99998662948616 423.67564433398417C212.31248702287684 415.554550274189 230.87498773098002 386.43462728835215 251.49998851776138 384.69439284696745C272.12498930454274 382.95415840558275 280.37498961925525 417.526815974425 300.99999040603655 415.3225190153377C321.6249911928179 413.1182220562505 329.87499150753047 375.04189247875377 350.4999922943118 374.1137674433486C371.1249930810932 373.1856424079435 379.3749933958057 410.7515032159673 399.999994182587 410.86751884539296C420.62499496936834 410.9835344748186 428.8749952840809 373.8585330586122 449.4999960708622 374.6706424645917C470.12499685764357 375.48275187057124 478.3749971723561 410.82111259362273 498.99999795913743 414.76564399409466C519.6249987459188 418.7101753945666 527.8749990606314 391.2840805983441 548.4999998474127 393.604393186857C569.1250006341941 395.9247057753699 587.6875013422973 419.1742379122692 598.0000017356879 425.9031444189566 " transform="rotate(54, 400, 400)"></path><path d="M212.99998652458197 422.36033086583774C222.73957022945095 414.69040869825346 240.27082089821508 387.1882592116297 259.749988307953 385.54470446143307C279.22915571769096 383.9011497112364 287.0208226815861 416.55310408180964 306.49999009132404 414.4712680648939C325.979157501062 412.3894320479782 333.7708244649572 376.4284541136757 353.24999187469507 375.5518915802375C372.729159284433 374.6753290467993 380.5208262483282 410.1541975877107 399.99999365806616 410.26376790439053C419.47916106780406 410.3733382210703 427.27082803169924 375.310836883542 446.74999544143714 376.07782910030045C466.2291628511751 376.84482131705886 474.0208298150703 410.2199397777186 493.49999722480817 413.945330544831C512.9791646345461 417.67072131194334 520.7708315984413 391.76829844884435 540.2499990081792 393.95970478243987C559.7291664179172 396.1511111160354 577.2604170866814 418.10900257866246 587.0000007915503 424.46408094608944 " transform="rotate(51, 400, 400)"></path><path d="M224.00000167846684 421.04501739769137C233.16666869481412 413.82626712231786 249.6666693242392 387.9418911349073 268.0000033569337 386.3950160758987C286.33333738962824 384.8481410168901 293.66667100270604 415.5793921891943 312.0000050354006 413.62001711445004C330.33333906809514 411.6606420397058 337.66667268117294 377.81501574859766 356.00000671386744 376.9900157171264C374.333340746562 376.16501568565513 381.6666743596398 409.5568919594541 400.0000083923343 409.66001696338805C418.33334242502883 409.7631419673219 425.66667603810663 376.7631407084718 444.0000100708011 377.48501573600913C462.3333441034957 378.2068907635465 469.6666777165735 409.61876696181446 488.00001174926797 413.12501709556733C506.3333457819625 416.63126722932014 513.6666793950403 392.2525162993446 532.0000134277349 394.31501637802273C550.3333474604294 396.37751645670085 566.8333480898546 417.04376724505573 576.0000151062018 423.02501747322236 " transform="rotate(48, 400, 400)"></path><path d="M235.00000157356268 419.72970392954494C243.59375190138826 412.9621255463823 259.0625024914742 388.6955230581849 276.25000314712537 387.2453276903643C293.4375038027765 385.79513232254374 300.31250406503693 414.60568029657895 317.500004720688 412.7687661640062C334.6875053763392 410.9318520314335 341.5625056385996 379.2015773835196 358.75000629425074 378.4281398540153C375.93750694990183 377.654702324511 382.8125072121623 408.95958633119756 400.00000786781345 409.05626602238556C417.18750852346454 409.1529457135736 424.06250878572496 378.2154445334016 441.25000944137605 378.8922023717179C458.4375100970272 379.5689602100341 465.31251035928767 409.0175941459104 482.50001101493876 412.30470364630366C499.6875116705899 415.59181314669695 506.5625119328503 392.73673414984484 523.7500125885015 394.6703279736056C540.9375132441526 396.60392179736635 556.4062638342386 415.97853191144907 565.0000141620642 421.58595400035523 " transform="rotate(45, 400, 400)"></path><path d="M246.0000014686585 418.41439236874714C254.02083510796234 412.09798587779534 268.4583356587093 389.4491568888111 284.500002937317 388.0956412121786C300.5416702159247 386.74212553554605 306.95833712736777 413.6319703113122 323.00000440597546 411.917517120911C339.0416716845832 410.2030639305098 345.4583385960263 380.5881409257902 361.500005874634 379.86626589825283C377.54167315324173 379.1443908707155 383.9583400646848 408.3622826102896 400.0000073432925 408.45251698873176C416.04167462190026 408.54275136717393 422.4583415333433 379.66775026568007 438.50000881195103 380.29939091477524C454.5416760905587 380.9310315638704 460.9583430020018 408.4164232373549 477.0000102806095 411.4843921043886C493.04167755921725 414.55236097142233 499.45834447066034 393.22095390769374 515.500011749268 395.0256414765371C531.5416790278757 396.83032904538044 545.9791795786227 414.91329848519104 554.0000132179266 420.1468924348368 " transform="rotate(42, 400, 400)"></path><path d="M257.00000136375434 417.0990769932521C264.4479183145365 411.23384239451116 277.8541688259443 390.20278690474004 292.7500027275087 388.94595091929557C307.64583662907296 387.68911493385104 313.60417018969866 412.6582565113482 328.50000409126295 411.06626426311857C343.3958379928273 409.47427201488887 349.35417155345294 381.97470065336347 364.2500054550173 381.30438812779306C379.14583935658163 380.63407560222265 385.10417291720734 407.76497507468434 400.0000068187716 407.84876414038064C414.8958407203359 407.93255320607693 420.8541742809616 381.12005218326124 435.7500081825259 381.7065756431353C450.64584208409025 382.2930991030094 456.60417564471595 407.8152485141021 471.50000954628024 410.66407674777633C486.3958434478446 413.5129049814505 492.3541770084703 393.7051698508453 507.2500109100346 395.3809511647713C522.1458448115989 397.0567324786973 535.5520953230068 413.8480612442357 543.0000122737889 418.707827054621 " transform="rotate(39, 400, 400)"></path><path d="M268.00000125885015 415.78376352510566C274.87500152111056 410.36970081857555 287.2500019931794 390.9564188280176 301.0000025177003 389.7962625337612C314.7500030422212 388.6361062395047 320.2500032520295 411.6845446187329 334.00000377655044 410.2150133126747C347.75000430107133 408.7454820066165 353.25000451087965 383.3612622882854 367.0000050354006 382.742512264682C380.7500055599215 382.1237622410785 386.25000576972985 407.16766944642774 400.00000629425074 407.2450131993782C413.7500068187716 407.3223569523286 419.25000702857994 382.57235600819104 433.0000075531009 383.11376227884404C446.7500080776217 383.65516854949703 452.2500082874301 407.21407569819803 466.00000881195103 409.8437632985126C479.75000933647186 412.47345089882725 485.25000954628024 394.1893877013456 499.0000100708011 395.7362627603542C512.750010595322 397.2831378193628 525.1250110673909 412.78282591062896 532.0000113296513 417.26876358175394 " transform="rotate(36, 400, 400)"></path><path d="M279.00000115394596 414.4684500569592C285.3020847276847 409.50555924264 296.64583516041444 391.7100507512952 309.2500023078919 390.6465741482268C321.8541694553694 389.58309754515835 326.8958363143604 410.71083272611753 339.5000034618379 409.3637623622309C352.10417060931536 408.0166919983442 357.14583746830635 384.7478239232073 369.75000461578384 384.18063640157084C382.3541717632614 383.61344887993437 387.39583862225237 406.5703638181712 400.00000576972985 406.6412622583757C412.6041729172073 406.7121606985803 417.6458397761983 384.02465983312084 430.25000692367576 384.5209489145527C442.85417407115324 385.01723799598466 447.89584093014423 406.6129028822939 460.5000080776217 409.02344984924895C473.1041752250992 411.43399681620406 478.14584208409025 394.67360555184587 490.75000923156773 396.09157435593704C503.3541763790452 397.5095431600283 514.697926811775 411.7175905770223 521.0000103855136 415.8297001088868 " transform="rotate(33, 400, 400)"></path><path d="M290.00000104904177 413.1531375424871C295.72916793425884 408.6414186203787 306.0416683276495 392.4636836282471 317.50000209808354 391.49688671636676C328.9583358685177 390.53008980448635 333.5416693766913 409.7371217871765 345.0000031471253 408.51251236546136C356.45833691755945 407.2879029437462 361.04167042573306 386.1343865118036 372.50000419616714 385.61876149213407C383.9583379666012 385.10313647246454 388.5416714747749 405.9730591435889 400.00000524520897 406.0375122710476C411.458339015643 406.10196539850625 416.0416725238166 385.47696461172495 427.50000629425074 385.9281365039358C438.95834006468476 386.3793083961466 443.54167357285843 406.0117310200641 455.0000073432925 408.2031373536596C466.4583411137266 410.3945436872551 471.0416746219002 395.1578243560204 482.5000083923343 396.4468869051943C493.95834216276836 397.7359494543681 504.2708425561591 410.6523561970899 510.00000944137605 414.39063758969405 " transform="rotate(30, 400, 400)"></path><path d="M301.0000009441376 411.83782407434074C306.156251140833 407.77727704444317 315.43750149488454 393.2173155515247 325.7500018882752 392.3471983308324C336.0625022816659 391.47708111014003 340.1875024390222 408.7634098945611 350.5000028324128 407.6612614150175C360.8125032258035 406.5591129354739 364.93750338315976 387.5209481467255 375.25000377655044 387.05688562902293C385.5625041699411 386.59282311132034 389.68750432729735 405.3757535153323 400.000004720688 405.4337613300451C410.3125051140787 405.49176914475794 414.437505271435 386.92926843665475 424.7500056648256 387.3353231396445C435.0625060582163 387.7413778426343 439.18750621557257 405.41055820416 449.50000660896325 407.38282390439593C459.8125070023539 409.3550896046319 463.9375071597102 395.64204220652067 474.2500075531009 396.80219850077714C484.56250794649156 397.96235479503355 493.8437583005432 409.5871208634832 499.00000849723847 412.9515741168269 " transform="rotate(27, 400, 400)"></path><path d="M312.00000083923345 410.5225086988457C316.58333434740706 406.91313356115893 324.83333466211957 393.97094556745367 334.00000167846684 393.1975080379493C343.1666686948141 392.424070508445 346.833335501353 407.78969609459716 356.0000025177003 406.81000855722505C365.16666953404757 405.83032101985293 368.83333634058647 388.9075078742988 378.0000033569337 388.4950078585632C387.166670373281 388.08250784282757 390.83333717981986 404.77844597972705 400.00000419616714 404.830008481694C409.1666712125144 404.881570983661 412.8333380190533 388.3815703542359 422.0000050354006 388.74250786800457C431.1666720517478 389.10344538177327 434.83333885828677 404.80938348090723 444.000005874634 406.56250854778364C453.16667289098126 408.31563361466004 456.83333969752016 396.1262581496723 466.00000671386744 397.15750818901137C475.1666737302147 398.1887582283504 483.4166740449273 408.52188362252787 488.0000075531009 411.51250873661115 " transform="rotate(24, 400, 400)"></path><path d="M323.00000073432926 409.2071961843736C327.0104175539812 406.0489929388977 334.22916782935465 394.72457844440555 342.2500014686585 394.04782060608926C350.27083510796234 393.371062767773 353.47916856368386 406.8159851556561 361.50000220298773 405.9587585604555C369.5208358422916 405.1015319652549 372.7291692980132 390.2940704628951 380.750002937317 389.9331329491264C388.77083657662087 389.57219543535774 391.9791700323424 404.1811413051448 400.00000367164625 404.2262584943659C408.0208373109501 404.27137568358694 411.22917076667164 389.83387513284003 419.2500044059755 390.1496954573876C427.27083804527933 390.4655157819352 430.4791715010009 404.2082116186774 438.5000051403048 405.7421960521943C446.52083877960865 407.27618048571117 449.72917223533017 396.61047695384684 457.750005874634 397.51282073826854C465.77083951393786 398.41516452269025 472.98958978931137 407.4566492425955 477.0000066089633 410.0734462174184 " transform="rotate(21, 400, 400)"></path><path d="M334.0000006294251 407.89188271622714C337.4375007605553 405.1848513629621 343.6250009965897 395.4782103676831 350.50000125885015 394.8981322205549C357.37500152111056 394.31805407342665 360.12500162601475 405.84227326304074 367.0000018882752 405.1075076100117C373.8750021505357 404.37274195698257 376.6250022554398 391.680632097817 383.5000025177003 391.3712570860153C390.3750027799607 391.0618820742136 393.1250028848649 403.5838356768882 400.00000314712537 403.6225075533634C406.87500340938584 403.6611794298386 409.62500351429 391.28617895776983 416.50000377655044 391.5568820930963C423.37500403881086 391.82758522842283 426.12500414371505 403.60703880277333 433.0000044059755 404.9218826029306C439.87500466823593 406.23672640308797 442.6250047731401 397.0946948043471 449.5000050354006 397.8681323338514C456.375005297661 398.6415698633557 462.56250553369546 406.3914139089888 466.00000566482566 408.63438274455126 " transform="rotate(18, 400, 400)"></path><path d="M345.0000005245209 406.5765682944064C347.8645839671294 404.3207088333522 353.02083416382476 396.23184133728637 358.75000104904177 395.7484428813462C364.47916793425884 395.265044425406 366.77083468834564 404.8685604167511 372.50000157356266 404.2562557058935C378.2291684587797 403.64395099503594 380.52083521286653 393.0671927790646 386.25000209808354 392.80938026922985C391.9791689833006 392.5515677593951 394.2708357373874 402.9865290949573 400.0000026226045 403.01875565868664C405.7291695078215 403.050982222416 408.0208362619083 392.7384818290253 413.75000314712537 392.96406777513073C419.4791700323424 393.18965372123614 421.7708367864292 403.0058650331949 427.50000367164625 404.10156819999264C433.2291705568633 405.1972713667904 435.5208373109501 397.57891170117307 441.25000419616714 398.22344297575995C446.97917108138415 398.8679742503469 452.13542127807955 405.3261776217078 455.000004720688 407.19531831800987 " transform="rotate(15, 400, 400)"></path><path d="M356.0000004196167 405.26125482626C358.29166717370356 403.4565672574166 362.4166673310598 396.985473260564 367.0000008392334 396.5987544958118C371.58333434740706 396.2120357310597 373.41666775067654 403.89484852413574 378.00000125885015 403.4050047554497C382.58333476702376 402.9151609867636 384.41666817029324 394.4537544139866 389.00000167846684 394.24750440611876C393.5833351866405 394.04125439825094 395.41666858990993 402.3892234667007 400.00000209808354 402.41500471768416C404.5833356062572 402.4407859686676 406.4166690095267 394.1907856539551 411.0000025177003 394.37125441083947C415.5833360258739 394.55172316772376 417.4166694291434 402.4046922172908 422.000002937317 403.281254750729C426.58333644549066 404.1578172841672 428.4166698487601 398.0631295516733 433.0000033569337 398.57875457134287C437.58333686510736 399.0943795910124 441.70833702246364 404.2609422881011 444.00000377655044 405.75625484514273 " transform="rotate(12, 400, 400)"></path><path d="M367.00000031471257 403.9459413581136C368.71875038027764 402.5924256814811 371.81250049829487 397.73910518384156 375.2500006294251 397.44906611027744C378.6875007605553 397.1590270367133 380.0625008130074 402.92113663152037 383.5000009441376 402.55375380500584C386.93750107526785 402.1863709784913 388.3125011277199 395.8403160489085 391.75000125885015 395.6856285430076C395.18750138998035 395.5309410371068 396.56250144243245 401.7919178384441 400.0000015735627 401.8112537766817C403.4375017046929 401.8305897149193 404.812501757145 395.6430894788849 408.2500018882752 395.77844104654815C411.68750201940543 395.9137926142114 413.0625020718575 401.80351940138667 416.50000220298773 402.4609413014653C419.937502334118 403.11836320154396 421.31250238657003 398.54734740217356 424.7500025177003 398.93406616692573C428.1875026488305 399.32078493167785 431.28125276684773 403.1957069544944 433.00000283241286 404.31719137227566 " transform="rotate(9, 400, 400)"></path><path d="M378.0000002098084 402.6306278899672C379.1458335868518 401.72828410554547 381.2083336655299 398.4927371071191 383.5000004196167 398.29937772474307C385.79166717370356 398.106018342367 386.70833387533827 401.94742473890506 389.0000006294251 401.702502854562C391.2916673835119 401.45758097021894 392.2083340851466 397.2268776838304 394.5000008392334 397.12375267989654C396.79166759332026 397.0206276759626 397.70833429495497 401.19461221018753 400.00000104904177 401.20750283567924C402.2916678031286 401.220393461171 403.20833450476334 397.0953933038147 405.50000125885015 397.1856276822569C407.79166801293695 397.27586206069907 408.7083347145717 401.20234658548253 411.0000014686585 401.64062785220165C413.29166822274533 402.07890911892076 414.20833492438004 399.03156525267383 416.50000167846684 399.2893777625086C418.7916684325537 399.54719027234336 420.8541685112318 402.1304716208877 422.0000018882752 402.8781278994085 " transform="rotate(6, 400, 400)"></path><path d="M389.0000001049042 401.3153134681464C389.57291679342586 400.8641415759356 390.6041668327649 399.24636807672243 391.7500002098084 399.1496883855344C392.8958335868518 399.0530086943463 393.3541669376691 400.97371189261537 394.50000031471257 400.85125095044384C395.6458336917559 400.7287900082723 396.1041670425733 398.6134383650781 397.2500004196167 398.56187586311114C398.3958337966601 398.51031336114414 398.8541671474775 400.5973056282566 400.0000005245209 400.60375094100243C401.1458339015643 400.6101962537483 401.60416725238167 398.5476961750702 402.7500006294251 398.59281336429126C403.8958340064685 398.6379305535124 404.35416735728586 400.60117281590414 405.50000073432926 400.82031344926367C406.64583411137266 401.0394540826232 407.10416746219005 399.5157821494997 408.2500008392334 399.64468840441714C409.39583421627685 399.7735946593345 410.4270842556159 401.06523533360667 411.0000009441376 401.43906347286713 " transform="rotate(3, 400, 400)"></path></g></svg>