<svg xmlns="http://www.w3.org/2000/svg" version="1.1" xmlns:xlink="http://www.w3.org/1999/xlink" xmlns:svgjs="http://svgjs.dev/svgjs" viewBox="0 0 1422 800"><defs><linearGradient x1="50%" y1="0%" x2="50%" y2="100%" id="oooscillate-grad"><stop stop-color="#6f5cf3" stop-opacity="1" offset="0%"></stop><stop stop-color="#9013fe" stop-opacity="1" offset="100%"></stop></linearGradient></defs><g stroke-width="4" stroke="url(#oooscillate-grad)" fill="none" stroke-linecap="round"><path d="M 0 -600 Q 355.5 400 711 400 Q 1066.5 400 1422 -600" opacity="0.05"></path><path d="M 0 -550 Q 355.5 400 711 400 Q 1066.5 400 1422 -550" opacity="0.14"></path><path d="M 0 -500 Q 355.5 400 711 400 Q 1066.5 400 1422 -500" opacity="0.22"></path><path d="M 0 -450 Q 355.5 400 711 400 Q 1066.5 400 1422 -450" opacity="0.31"></path><path d="M 0 -400 Q 355.5 400 711 400 Q 1066.5 400 1422 -400" opacity="0.40"></path><path d="M 0 -350 Q 355.5 400 711 400 Q 1066.5 400 1422 -350" opacity="0.48"></path><path d="M 0 -300 Q 355.5 400 711 400 Q 1066.5 400 1422 -300" opacity="0.57"></path><path d="M 0 -250 Q 355.5 400 711 400 Q 1066.5 400 1422 -250" opacity="0.65"></path><path d="M 0 -200 Q 355.5 400 711 400 Q 1066.5 400 1422 -200" opacity="0.74"></path><path d="M 0 -150 Q 355.5 400 711 400 Q 1066.5 400 1422 -150" opacity="0.83"></path><path d="M 0 -100 Q 355.5 400 711 400 Q 1066.5 400 1422 -100" opacity="0.91"></path></g></svg>