<svg xmlns="http://www.w3.org/2000/svg" version="1.1" xmlns:xlink="http://www.w3.org/1999/xlink" xmlns:svgjs="http://svgjs.dev/svgjs" viewBox="0 0 800 800" opacity="0.78"><g fill="none" stroke-width="0.5" stroke="#6f5cf3" stroke-linecap="round" transform="matrix(2.6,0,0,2.6,-640.0000366210938,-640)"><line x1="476.5" y1="400" x2="323.5" y2="400" transform="rotate(0, 400, 400)" opacity="0.19"></line><line x1="237" y1="400" x2="563" y2="400" transform="rotate(1, 400, 400)" opacity="0.47"></line><line x1="-20" y1="400" x2="820" y2="400" transform="rotate(2, 400, 400)" opacity="0.13"></line><line x1="-116.5" y1="400" x2="916.5" y2="400" transform="rotate(3, 400, 400)" opacity="0.28"></line><line x1="235" y1="400" x2="565" y2="400" transform="rotate(4, 400, 400)" opacity="0.47"></line><line x1="543.5" y1="400" x2="256.5" y2="400" transform="rotate(5, 400, 400)" opacity="0.32"></line><line x1="354.5" y1="400" x2="445.5" y2="400" transform="rotate(6, 400, 400)" opacity="0.28"></line><line x1="338.5" y1="400" x2="461.5" y2="400" transform="rotate(7, 400, 400)" opacity="0.20"></line><line x1="137.5" y1="400" x2="662.5" y2="400" transform="rotate(8, 400, 400)" opacity="0.35"></line><line x1="510.5" y1="400" x2="289.5" y2="400" transform="rotate(9, 400, 400)" opacity="0.62"></line><line x1="143.5" y1="400" x2="656.5" y2="400" transform="rotate(10, 400, 400)" opacity="1.00"></line><line x1="117" y1="400" x2="683" y2="400" transform="rotate(11, 400, 400)" opacity="0.62"></line><line x1="379.5" y1="400" x2="420.5" y2="400" transform="rotate(12, 400, 400)" opacity="0.20"></line><line x1="452" y1="400" x2="348" y2="400" transform="rotate(13, 400, 400)" opacity="0.57"></line><line x1="331.5" y1="400" x2="468.5" y2="400" transform="rotate(14, 400, 400)" opacity="0.71"></line><line x1="-20" y1="400" x2="820" y2="400" transform="rotate(15, 400, 400)" opacity="0.73"></line><line x1="344.5" y1="400" x2="455.5" y2="400" transform="rotate(16, 400, 400)" opacity="0.83"></line><line x1="470.5" y1="400" x2="329.5" y2="400" transform="rotate(17, 400, 400)" opacity="0.26"></line><line x1="561" y1="400" x2="239" y2="400" transform="rotate(18, 400, 400)" opacity="0.83"></line><line x1="587" y1="400" x2="213" y2="400" transform="rotate(19, 400, 400)" opacity="0.85"></line><line x1="246" y1="400" x2="554" y2="400" transform="rotate(20, 400, 400)" opacity="0.86"></line><line x1="540.5" y1="400" x2="259.5" y2="400" transform="rotate(21, 400, 400)" opacity="0.80"></line><line x1="175.5" y1="400" x2="624.5" y2="400" transform="rotate(22, 400, 400)" opacity="0.49"></line><line x1="-75" y1="400" x2="875" y2="400" transform="rotate(23, 400, 400)" opacity="0.83"></line><line x1="184.5" y1="400" x2="615.5" y2="400" transform="rotate(24, 400, 400)" opacity="0.51"></line><line x1="300" y1="400" x2="500" y2="400" transform="rotate(25, 400, 400)" opacity="0.70"></line><line x1="264.5" y1="400" x2="535.5" y2="400" transform="rotate(26, 400, 400)" opacity="0.17"></line><line x1="429.5" y1="400" x2="370.5" y2="400" transform="rotate(27, 400, 400)" opacity="0.79"></line><line x1="557.5" y1="400" x2="242.5" y2="400" transform="rotate(28, 400, 400)" opacity="0.62"></line><line x1="110" y1="400" x2="690" y2="400" transform="rotate(29, 400, 400)" opacity="0.45"></line><line x1="396" y1="400" x2="404" y2="400" transform="rotate(30, 400, 400)" opacity="0.32"></line><line x1="-101" y1="400" x2="901" y2="400" transform="rotate(31, 400, 400)" opacity="0.34"></line><line x1="507.5" y1="400" x2="292.5" y2="400" transform="rotate(32, 400, 400)" opacity="0.84"></line><line x1="361" y1="400" x2="439" y2="400" transform="rotate(33, 400, 400)" opacity="0.28"></line><line x1="-86" y1="400" x2="886" y2="400" transform="rotate(34, 400, 400)" opacity="0.67"></line><line x1="280.5" y1="400" x2="519.5" y2="400" transform="rotate(35, 400, 400)" opacity="0.20"></line><line x1="488.5" y1="400" x2="311.5" y2="400" transform="rotate(36, 400, 400)" opacity="0.78"></line><line x1="422" y1="400" x2="378" y2="400" transform="rotate(37, 400, 400)" opacity="0.22"></line><line x1="2.5" y1="400" x2="797.5" y2="400" transform="rotate(38, 400, 400)" opacity="0.42"></line><line x1="404.5" y1="400" x2="395.5" y2="400" transform="rotate(39, 400, 400)" opacity="0.27"></line><line x1="-106.5" y1="400" x2="906.5" y2="400" transform="rotate(40, 400, 400)" opacity="0.25"></line><line x1="227" y1="400" x2="573" y2="400" transform="rotate(41, 400, 400)" opacity="0.94"></line><line x1="427.5" y1="400" x2="372.5" y2="400" transform="rotate(42, 400, 400)" opacity="0.46"></line><line x1="-76" y1="400" x2="876" y2="400" transform="rotate(43, 400, 400)" opacity="0.89"></line><line x1="-125.5" y1="400" x2="925.5" y2="400" transform="rotate(44, 400, 400)" opacity="0.83"></line><line x1="329" y1="400" x2="471" y2="400" transform="rotate(45, 400, 400)" opacity="0.88"></line><line x1="136" y1="400" x2="664" y2="400" transform="rotate(46, 400, 400)" opacity="0.92"></line><line x1="366.5" y1="400" x2="433.5" y2="400" transform="rotate(47, 400, 400)" opacity="0.54"></line><line x1="106.5" y1="400" x2="693.5" y2="400" transform="rotate(48, 400, 400)" opacity="0.76"></line><line x1="429" y1="400" x2="371" y2="400" transform="rotate(49, 400, 400)" opacity="0.28"></line><line x1="568" y1="400" x2="232" y2="400" transform="rotate(50, 400, 400)" opacity="0.49"></line><line x1="539.5" y1="400" x2="260.5" y2="400" transform="rotate(51, 400, 400)" opacity="0.91"></line><line x1="574.5" y1="400" x2="225.5" y2="400" transform="rotate(52, 400, 400)" opacity="0.72"></line><line x1="565.5" y1="400" x2="234.5" y2="400" transform="rotate(53, 400, 400)" opacity="0.52"></line><line x1="255.5" y1="400" x2="544.5" y2="400" transform="rotate(54, 400, 400)" opacity="0.43"></line><line x1="-64.5" y1="400" x2="864.5" y2="400" transform="rotate(55, 400, 400)" opacity="0.73"></line><line x1="227.5" y1="400" x2="572.5" y2="400" transform="rotate(56, 400, 400)" opacity="0.08"></line><line x1="-57.5" y1="400" x2="857.5" y2="400" transform="rotate(57, 400, 400)" opacity="0.55"></line><line x1="514" y1="400" x2="286" y2="400" transform="rotate(58, 400, 400)" opacity="0.08"></line><line x1="519.5" y1="400" x2="280.5" y2="400" transform="rotate(59, 400, 400)" opacity="0.35"></line><line x1="-12.5" y1="400" x2="812.5" y2="400" transform="rotate(60, 400, 400)" opacity="0.10"></line><line x1="459.5" y1="400" x2="340.5" y2="400" transform="rotate(61, 400, 400)" opacity="0.24"></line><line x1="438.5" y1="400" x2="361.5" y2="400" transform="rotate(62, 400, 400)" opacity="0.55"></line><line x1="52" y1="400" x2="748" y2="400" transform="rotate(63, 400, 400)" opacity="0.70"></line><line x1="595" y1="400" x2="205" y2="400" transform="rotate(64, 400, 400)" opacity="0.33"></line><line x1="-80.5" y1="400" x2="880.5" y2="400" transform="rotate(65, 400, 400)" opacity="0.33"></line><line x1="57" y1="400" x2="743" y2="400" transform="rotate(66, 400, 400)" opacity="0.25"></line><line x1="158" y1="400" x2="642" y2="400" transform="rotate(67, 400, 400)" opacity="0.44"></line><line x1="211" y1="400" x2="589" y2="400" transform="rotate(68, 400, 400)" opacity="0.22"></line><line x1="-45" y1="400" x2="845" y2="400" transform="rotate(69, 400, 400)" opacity="0.64"></line><line x1="110" y1="400" x2="690" y2="400" transform="rotate(70, 400, 400)" opacity="0.95"></line><line x1="336" y1="400" x2="464" y2="400" transform="rotate(71, 400, 400)" opacity="0.86"></line><line x1="437.5" y1="400" x2="362.5" y2="400" transform="rotate(72, 400, 400)" opacity="0.83"></line><line x1="-57.5" y1="400" x2="857.5" y2="400" transform="rotate(73, 400, 400)" opacity="0.41"></line><line x1="478.5" y1="400" x2="321.5" y2="400" transform="rotate(74, 400, 400)" opacity="0.78"></line><line x1="305" y1="400" x2="495" y2="400" transform="rotate(75, 400, 400)" opacity="0.17"></line><line x1="138" y1="400" x2="662" y2="400" transform="rotate(76, 400, 400)" opacity="0.87"></line><line x1="530.5" y1="400" x2="269.5" y2="400" transform="rotate(77, 400, 400)" opacity="0.53"></line><line x1="414" y1="400" x2="386" y2="400" transform="rotate(78, 400, 400)" opacity="0.92"></line><line x1="98" y1="400" x2="702" y2="400" transform="rotate(79, 400, 400)" opacity="0.17"></line><line x1="44" y1="400" x2="756" y2="400" transform="rotate(80, 400, 400)" opacity="0.12"></line><line x1="-71.5" y1="400" x2="871.5" y2="400" transform="rotate(81, 400, 400)" opacity="0.70"></line><line x1="435" y1="400" x2="365" y2="400" transform="rotate(82, 400, 400)" opacity="0.51"></line><line x1="20" y1="400" x2="780" y2="400" transform="rotate(83, 400, 400)" opacity="0.28"></line><line x1="326.5" y1="400" x2="473.5" y2="400" transform="rotate(84, 400, 400)" opacity="0.22"></line><line x1="588" y1="400" x2="212" y2="400" transform="rotate(85, 400, 400)" opacity="0.11"></line><line x1="136" y1="400" x2="664" y2="400" transform="rotate(86, 400, 400)" opacity="0.89"></line><line x1="387" y1="400" x2="413" y2="400" transform="rotate(87, 400, 400)" opacity="0.55"></line><line x1="139" y1="400" x2="661" y2="400" transform="rotate(88, 400, 400)" opacity="0.91"></line><line x1="247.5" y1="400" x2="552.5" y2="400" transform="rotate(89, 400, 400)" opacity="0.39"></line><line x1="9.5" y1="400" x2="790.5" y2="400" transform="rotate(90, 400, 400)" opacity="0.88"></line><line x1="75" y1="400" x2="725" y2="400" transform="rotate(91, 400, 400)" opacity="0.21"></line><line x1="509.5" y1="400" x2="290.5" y2="400" transform="rotate(92, 400, 400)" opacity="0.84"></line><line x1="190.5" y1="400" x2="609.5" y2="400" transform="rotate(93, 400, 400)" opacity="0.17"></line><line x1="567" y1="400" x2="233" y2="400" transform="rotate(94, 400, 400)" opacity="0.15"></line><line x1="-123" y1="400" x2="923" y2="400" transform="rotate(95, 400, 400)" opacity="0.27"></line><line x1="227" y1="400" x2="573" y2="400" transform="rotate(96, 400, 400)" opacity="0.79"></line><line x1="131" y1="400" x2="669" y2="400" transform="rotate(97, 400, 400)" opacity="0.24"></line><line x1="-34" y1="400" x2="834" y2="400" transform="rotate(98, 400, 400)" opacity="0.32"></line><line x1="461.5" y1="400" x2="338.5" y2="400" transform="rotate(99, 400, 400)" opacity="0.25"></line><line x1="-80" y1="400" x2="880" y2="400" transform="rotate(100, 400, 400)" opacity="0.64"></line><line x1="464" y1="400" x2="336" y2="400" transform="rotate(101, 400, 400)" opacity="0.87"></line><line x1="-39.5" y1="400" x2="839.5" y2="400" transform="rotate(102, 400, 400)" opacity="0.41"></line><line x1="-129.5" y1="400" x2="929.5" y2="400" transform="rotate(103, 400, 400)" opacity="0.48"></line><line x1="-55.5" y1="400" x2="855.5" y2="400" transform="rotate(104, 400, 400)" opacity="0.25"></line><line x1="276.5" y1="400" x2="523.5" y2="400" transform="rotate(105, 400, 400)" opacity="0.16"></line><line x1="462" y1="400" x2="338" y2="400" transform="rotate(106, 400, 400)" opacity="0.33"></line><line x1="86" y1="400" x2="714" y2="400" transform="rotate(107, 400, 400)" opacity="0.15"></line><line x1="384" y1="400" x2="416" y2="400" transform="rotate(108, 400, 400)" opacity="0.94"></line><line x1="126.5" y1="400" x2="673.5" y2="400" transform="rotate(109, 400, 400)" opacity="0.44"></line><line x1="-21.5" y1="400" x2="821.5" y2="400" transform="rotate(110, 400, 400)" opacity="0.26"></line><line x1="289.5" y1="400" x2="510.5" y2="400" transform="rotate(111, 400, 400)" opacity="0.64"></line><line x1="-125.5" y1="400" x2="925.5" y2="400" transform="rotate(112, 400, 400)" opacity="0.77"></line><line x1="544.5" y1="400" x2="255.5" y2="400" transform="rotate(113, 400, 400)" opacity="0.42"></line><line x1="440.5" y1="400" x2="359.5" y2="400" transform="rotate(114, 400, 400)" opacity="0.92"></line><line x1="1" y1="400" x2="799" y2="400" transform="rotate(115, 400, 400)" opacity="0.09"></line><line x1="550" y1="400" x2="250" y2="400" transform="rotate(116, 400, 400)" opacity="0.49"></line><line x1="280.5" y1="400" x2="519.5" y2="400" transform="rotate(117, 400, 400)" opacity="0.60"></line><line x1="437.5" y1="400" x2="362.5" y2="400" transform="rotate(118, 400, 400)" opacity="0.61"></line><line x1="56.5" y1="400" x2="743.5" y2="400" transform="rotate(119, 400, 400)" opacity="0.53"></line><line x1="-95" y1="400" x2="895" y2="400" transform="rotate(120, 400, 400)" opacity="0.26"></line><line x1="73.5" y1="400" x2="726.5" y2="400" transform="rotate(121, 400, 400)" opacity="0.92"></line><line x1="417.5" y1="400" x2="382.5" y2="400" transform="rotate(122, 400, 400)" opacity="0.28"></line><line x1="503.5" y1="400" x2="296.5" y2="400" transform="rotate(123, 400, 400)" opacity="0.72"></line><line x1="161.5" y1="400" x2="638.5" y2="400" transform="rotate(124, 400, 400)" opacity="0.29"></line><line x1="254.5" y1="400" x2="545.5" y2="400" transform="rotate(125, 400, 400)" opacity="0.41"></line><line x1="234.5" y1="400" x2="565.5" y2="400" transform="rotate(126, 400, 400)" opacity="0.70"></line><line x1="397.5" y1="400" x2="402.5" y2="400" transform="rotate(127, 400, 400)" opacity="0.30"></line><line x1="74" y1="400" x2="726" y2="400" transform="rotate(128, 400, 400)" opacity="0.08"></line><line x1="503.5" y1="400" x2="296.5" y2="400" transform="rotate(129, 400, 400)" opacity="0.40"></line><line x1="478.5" y1="400" x2="321.5" y2="400" transform="rotate(130, 400, 400)" opacity="0.14"></line><line x1="-72.5" y1="400" x2="872.5" y2="400" transform="rotate(131, 400, 400)" opacity="0.10"></line><line x1="60.5" y1="400" x2="739.5" y2="400" transform="rotate(132, 400, 400)" opacity="0.84"></line><line x1="442" y1="400" x2="358" y2="400" transform="rotate(133, 400, 400)" opacity="0.76"></line><line x1="-81" y1="400" x2="881" y2="400" transform="rotate(134, 400, 400)" opacity="0.23"></line><line x1="-77.5" y1="400" x2="877.5" y2="400" transform="rotate(135, 400, 400)" opacity="0.89"></line><line x1="379.5" y1="400" x2="420.5" y2="400" transform="rotate(136, 400, 400)" opacity="0.83"></line><line x1="-30.5" y1="400" x2="830.5" y2="400" transform="rotate(137, 400, 400)" opacity="0.93"></line><line x1="560.5" y1="400" x2="239.5" y2="400" transform="rotate(138, 400, 400)" opacity="0.54"></line><line x1="33.5" y1="400" x2="766.5" y2="400" transform="rotate(139, 400, 400)" opacity="0.99"></line><line x1="-32" y1="400" x2="832" y2="400" transform="rotate(140, 400, 400)" opacity="0.88"></line><line x1="228.5" y1="400" x2="571.5" y2="400" transform="rotate(141, 400, 400)" opacity="0.79"></line><line x1="125" y1="400" x2="675" y2="400" transform="rotate(142, 400, 400)" opacity="0.57"></line><line x1="527.5" y1="400" x2="272.5" y2="400" transform="rotate(143, 400, 400)" opacity="0.96"></line><line x1="254" y1="400" x2="546" y2="400" transform="rotate(144, 400, 400)" opacity="0.80"></line><line x1="-63" y1="400" x2="863" y2="400" transform="rotate(145, 400, 400)" opacity="0.45"></line><line x1="-31" y1="400" x2="831" y2="400" transform="rotate(146, 400, 400)" opacity="0.67"></line><line x1="452" y1="400" x2="348" y2="400" transform="rotate(147, 400, 400)" opacity="0.19"></line><line x1="108" y1="400" x2="692" y2="400" transform="rotate(148, 400, 400)" opacity="0.42"></line><line x1="10" y1="400" x2="790" y2="400" transform="rotate(149, 400, 400)" opacity="0.55"></line><line x1="447.5" y1="400" x2="352.5" y2="400" transform="rotate(150, 400, 400)" opacity="0.24"></line><line x1="305" y1="400" x2="495" y2="400" transform="rotate(151, 400, 400)" opacity="0.42"></line><line x1="200" y1="400" x2="600" y2="400" transform="rotate(152, 400, 400)" opacity="0.15"></line><line x1="76" y1="400" x2="724" y2="400" transform="rotate(153, 400, 400)" opacity="0.10"></line><line x1="315.5" y1="400" x2="484.5" y2="400" transform="rotate(154, 400, 400)" opacity="0.61"></line><line x1="200.5" y1="400" x2="599.5" y2="400" transform="rotate(155, 400, 400)" opacity="0.10"></line><line x1="201" y1="400" x2="599" y2="400" transform="rotate(156, 400, 400)" opacity="0.47"></line><line x1="26.5" y1="400" x2="773.5" y2="400" transform="rotate(157, 400, 400)" opacity="0.55"></line><line x1="151.5" y1="400" x2="648.5" y2="400" transform="rotate(158, 400, 400)" opacity="0.46"></line><line x1="468.5" y1="400" x2="331.5" y2="400" transform="rotate(159, 400, 400)" opacity="0.19"></line><line x1="400" y1="400" x2="400" y2="400" transform="rotate(160, 400, 400)" opacity="0.14"></line><line x1="141.5" y1="400" x2="658.5" y2="400" transform="rotate(161, 400, 400)" opacity="1.00"></line><line x1="528.5" y1="400" x2="271.5" y2="400" transform="rotate(162, 400, 400)" opacity="0.12"></line><line x1="564.5" y1="400" x2="235.5" y2="400" transform="rotate(163, 400, 400)" opacity="0.15"></line><line x1="-79.5" y1="400" x2="879.5" y2="400" transform="rotate(164, 400, 400)" opacity="0.20"></line><line x1="59.5" y1="400" x2="740.5" y2="400" transform="rotate(165, 400, 400)" opacity="0.52"></line><line x1="494" y1="400" x2="306" y2="400" transform="rotate(166, 400, 400)" opacity="0.66"></line><line x1="323" y1="400" x2="477" y2="400" transform="rotate(167, 400, 400)" opacity="0.74"></line><line x1="420.5" y1="400" x2="379.5" y2="400" transform="rotate(168, 400, 400)" opacity="0.84"></line><line x1="188.5" y1="400" x2="611.5" y2="400" transform="rotate(169, 400, 400)" opacity="0.50"></line><line x1="238" y1="400" x2="562" y2="400" transform="rotate(170, 400, 400)" opacity="0.73"></line><line x1="102" y1="400" x2="698" y2="400" transform="rotate(171, 400, 400)" opacity="0.76"></line><line x1="-115" y1="400" x2="915" y2="400" transform="rotate(172, 400, 400)" opacity="0.80"></line><line x1="357" y1="400" x2="443" y2="400" transform="rotate(173, 400, 400)" opacity="0.60"></line><line x1="434.5" y1="400" x2="365.5" y2="400" transform="rotate(174, 400, 400)" opacity="0.27"></line><line x1="511.5" y1="400" x2="288.5" y2="400" transform="rotate(175, 400, 400)" opacity="0.45"></line><line x1="45.5" y1="400" x2="754.5" y2="400" transform="rotate(176, 400, 400)" opacity="0.50"></line><line x1="238.5" y1="400" x2="561.5" y2="400" transform="rotate(177, 400, 400)" opacity="0.77"></line><line x1="-84.5" y1="400" x2="884.5" y2="400" transform="rotate(178, 400, 400)" opacity="0.96"></line><line x1="450" y1="400" x2="350" y2="400" transform="rotate(179, 400, 400)" opacity="0.73"></line><line x1="299.5" y1="400" x2="500.5" y2="400" transform="rotate(180, 400, 400)" opacity="0.33"></line><line x1="332.5" y1="400" x2="467.5" y2="400" transform="rotate(181, 400, 400)" opacity="0.39"></line><line x1="242.5" y1="400" x2="557.5" y2="400" transform="rotate(182, 400, 400)" opacity="0.32"></line><line x1="132" y1="400" x2="668" y2="400" transform="rotate(183, 400, 400)" opacity="0.31"></line><line x1="612" y1="400" x2="188" y2="400" transform="rotate(184, 400, 400)" opacity="0.12"></line><line x1="596" y1="400" x2="204" y2="400" transform="rotate(185, 400, 400)" opacity="0.79"></line><line x1="-110" y1="400" x2="910" y2="400" transform="rotate(186, 400, 400)" opacity="0.70"></line><line x1="184.5" y1="400" x2="615.5" y2="400" transform="rotate(187, 400, 400)" opacity="0.43"></line><line x1="-107.5" y1="400" x2="907.5" y2="400" transform="rotate(188, 400, 400)" opacity="0.84"></line><line x1="237" y1="400" x2="563" y2="400" transform="rotate(189, 400, 400)" opacity="0.35"></line><line x1="403" y1="400" x2="397" y2="400" transform="rotate(190, 400, 400)" opacity="0.51"></line><line x1="447" y1="400" x2="353" y2="400" transform="rotate(191, 400, 400)" opacity="0.22"></line><line x1="116" y1="400" x2="684" y2="400" transform="rotate(192, 400, 400)" opacity="0.59"></line><line x1="15.5" y1="400" x2="784.5" y2="400" transform="rotate(193, 400, 400)" opacity="0.54"></line><line x1="-25.5" y1="400" x2="825.5" y2="400" transform="rotate(194, 400, 400)" opacity="0.27"></line><line x1="114.5" y1="400" x2="685.5" y2="400" transform="rotate(195, 400, 400)" opacity="0.84"></line><line x1="154.5" y1="400" x2="645.5" y2="400" transform="rotate(196, 400, 400)" opacity="0.42"></line><line x1="116.5" y1="400" x2="683.5" y2="400" transform="rotate(197, 400, 400)" opacity="0.59"></line><line x1="343" y1="400" x2="457" y2="400" transform="rotate(198, 400, 400)" opacity="0.42"></line><line x1="424.5" y1="400" x2="375.5" y2="400" transform="rotate(199, 400, 400)" opacity="0.83"></line><line x1="-125" y1="400" x2="925" y2="400" transform="rotate(200, 400, 400)" opacity="0.08"></line><line x1="-27.5" y1="400" x2="827.5" y2="400" transform="rotate(201, 400, 400)" opacity="0.65"></line><line x1="46.5" y1="400" x2="753.5" y2="400" transform="rotate(202, 400, 400)" opacity="0.11"></line><line x1="450" y1="400" x2="350" y2="400" transform="rotate(203, 400, 400)" opacity="0.96"></line><line x1="237" y1="400" x2="563" y2="400" transform="rotate(204, 400, 400)" opacity="0.45"></line><line x1="-80" y1="400" x2="880" y2="400" transform="rotate(205, 400, 400)" opacity="0.93"></line><line x1="519" y1="400" x2="281" y2="400" transform="rotate(206, 400, 400)" opacity="0.81"></line><line x1="363.5" y1="400" x2="436.5" y2="400" transform="rotate(207, 400, 400)" opacity="0.13"></line><line x1="142" y1="400" x2="658" y2="400" transform="rotate(208, 400, 400)" opacity="0.08"></line><line x1="7.5" y1="400" x2="792.5" y2="400" transform="rotate(209, 400, 400)" opacity="0.66"></line><line x1="-83" y1="400" x2="883" y2="400" transform="rotate(210, 400, 400)" opacity="0.71"></line><line x1="214" y1="400" x2="586" y2="400" transform="rotate(211, 400, 400)" opacity="0.24"></line><line x1="435" y1="400" x2="365" y2="400" transform="rotate(212, 400, 400)" opacity="0.49"></line><line x1="228" y1="400" x2="572" y2="400" transform="rotate(213, 400, 400)" opacity="0.57"></line><line x1="516.5" y1="400" x2="283.5" y2="400" transform="rotate(214, 400, 400)" opacity="0.58"></line><line x1="545" y1="400" x2="255" y2="400" transform="rotate(215, 400, 400)" opacity="0.87"></line><line x1="90" y1="400" x2="710" y2="400" transform="rotate(216, 400, 400)" opacity="0.92"></line><line x1="-46" y1="400" x2="846" y2="400" transform="rotate(217, 400, 400)" opacity="0.53"></line><line x1="545" y1="400" x2="255" y2="400" transform="rotate(218, 400, 400)" opacity="0.91"></line><line x1="390" y1="400" x2="410" y2="400" transform="rotate(219, 400, 400)" opacity="0.19"></line><line x1="366" y1="400" x2="434" y2="400" transform="rotate(220, 400, 400)" opacity="0.09"></line><line x1="-99" y1="400" x2="899" y2="400" transform="rotate(221, 400, 400)" opacity="0.39"></line><line x1="158" y1="400" x2="642" y2="400" transform="rotate(222, 400, 400)" opacity="0.17"></line><line x1="58.5" y1="400" x2="741.5" y2="400" transform="rotate(223, 400, 400)" opacity="0.66"></line><line x1="445.5" y1="400" x2="354.5" y2="400" transform="rotate(224, 400, 400)" opacity="0.95"></line><line x1="124" y1="400" x2="676" y2="400" transform="rotate(225, 400, 400)" opacity="0.31"></line><line x1="302" y1="400" x2="498" y2="400" transform="rotate(226, 400, 400)" opacity="0.58"></line><line x1="163" y1="400" x2="637" y2="400" transform="rotate(227, 400, 400)" opacity="0.68"></line><line x1="560" y1="400" x2="240" y2="400" transform="rotate(228, 400, 400)" opacity="0.13"></line><line x1="559" y1="400" x2="241" y2="400" transform="rotate(229, 400, 400)" opacity="0.29"></line><line x1="350.5" y1="400" x2="449.5" y2="400" transform="rotate(230, 400, 400)" opacity="0.46"></line><line x1="273" y1="400" x2="527" y2="400" transform="rotate(231, 400, 400)" opacity="0.18"></line><line x1="410.5" y1="400" x2="389.5" y2="400" transform="rotate(232, 400, 400)" opacity="0.58"></line><line x1="379" y1="400" x2="421" y2="400" transform="rotate(233, 400, 400)" opacity="0.26"></line><line x1="-123" y1="400" x2="923" y2="400" transform="rotate(234, 400, 400)" opacity="0.21"></line><line x1="567.5" y1="400" x2="232.5" y2="400" transform="rotate(235, 400, 400)" opacity="0.58"></line><line x1="2" y1="400" x2="798" y2="400" transform="rotate(236, 400, 400)" opacity="0.61"></line><line x1="532.5" y1="400" x2="267.5" y2="400" transform="rotate(237, 400, 400)" opacity="0.22"></line><line x1="87.5" y1="400" x2="712.5" y2="400" transform="rotate(238, 400, 400)" opacity="0.33"></line><line x1="23" y1="400" x2="777" y2="400" transform="rotate(239, 400, 400)" opacity="0.14"></line><line x1="26.5" y1="400" x2="773.5" y2="400" transform="rotate(240, 400, 400)" opacity="0.92"></line><line x1="-38.5" y1="400" x2="838.5" y2="400" transform="rotate(241, 400, 400)" opacity="0.96"></line><line x1="466" y1="400" x2="334" y2="400" transform="rotate(242, 400, 400)" opacity="0.10"></line><line x1="234.5" y1="400" x2="565.5" y2="400" transform="rotate(243, 400, 400)" opacity="0.22"></line><line x1="163" y1="400" x2="637" y2="400" transform="rotate(244, 400, 400)" opacity="0.36"></line><line x1="547" y1="400" x2="253" y2="400" transform="rotate(245, 400, 400)" opacity="0.68"></line><line x1="541" y1="400" x2="259" y2="400" transform="rotate(246, 400, 400)" opacity="0.60"></line><line x1="209" y1="400" x2="591" y2="400" transform="rotate(247, 400, 400)" opacity="0.29"></line><line x1="91" y1="400" x2="709" y2="400" transform="rotate(248, 400, 400)" opacity="0.31"></line><line x1="471" y1="400" x2="329" y2="400" transform="rotate(249, 400, 400)" opacity="0.64"></line><line x1="93" y1="400" x2="707" y2="400" transform="rotate(250, 400, 400)" opacity="0.68"></line><line x1="379.5" y1="400" x2="420.5" y2="400" transform="rotate(251, 400, 400)" opacity="0.31"></line><line x1="-21" y1="400" x2="821" y2="400" transform="rotate(252, 400, 400)" opacity="0.73"></line><line x1="593" y1="400" x2="207" y2="400" transform="rotate(253, 400, 400)" opacity="0.97"></line><line x1="444.5" y1="400" x2="355.5" y2="400" transform="rotate(254, 400, 400)" opacity="0.18"></line><line x1="472.5" y1="400" x2="327.5" y2="400" transform="rotate(255, 400, 400)" opacity="0.30"></line><line x1="302.5" y1="400" x2="497.5" y2="400" transform="rotate(256, 400, 400)" opacity="0.34"></line><line x1="450.5" y1="400" x2="349.5" y2="400" transform="rotate(257, 400, 400)" opacity="0.32"></line><line x1="583.5" y1="400" x2="216.5" y2="400" transform="rotate(258, 400, 400)" opacity="0.34"></line><line x1="529.5" y1="400" x2="270.5" y2="400" transform="rotate(259, 400, 400)" opacity="0.52"></line><line x1="372" y1="400" x2="428" y2="400" transform="rotate(260, 400, 400)" opacity="0.21"></line><line x1="55" y1="400" x2="745" y2="400" transform="rotate(261, 400, 400)" opacity="0.59"></line><line x1="38.5" y1="400" x2="761.5" y2="400" transform="rotate(262, 400, 400)" opacity="0.59"></line><line x1="370.5" y1="400" x2="429.5" y2="400" transform="rotate(263, 400, 400)" opacity="0.46"></line><line x1="441" y1="400" x2="359" y2="400" transform="rotate(264, 400, 400)" opacity="0.64"></line><line x1="486" y1="400" x2="314" y2="400" transform="rotate(265, 400, 400)" opacity="0.60"></line><line x1="47.5" y1="400" x2="752.5" y2="400" transform="rotate(266, 400, 400)" opacity="0.79"></line><line x1="291.5" y1="400" x2="508.5" y2="400" transform="rotate(267, 400, 400)" opacity="0.80"></line><line x1="141.5" y1="400" x2="658.5" y2="400" transform="rotate(268, 400, 400)" opacity="0.44"></line><line x1="68" y1="400" x2="732" y2="400" transform="rotate(269, 400, 400)" opacity="0.89"></line><line x1="397.5" y1="400" x2="402.5" y2="400" transform="rotate(270, 400, 400)" opacity="0.28"></line><line x1="518" y1="400" x2="282" y2="400" transform="rotate(271, 400, 400)" opacity="0.71"></line><line x1="403" y1="400" x2="397" y2="400" transform="rotate(272, 400, 400)" opacity="0.79"></line><line x1="282.5" y1="400" x2="517.5" y2="400" transform="rotate(273, 400, 400)" opacity="0.44"></line><line x1="11.5" y1="400" x2="788.5" y2="400" transform="rotate(274, 400, 400)" opacity="0.58"></line><line x1="394" y1="400" x2="406" y2="400" transform="rotate(275, 400, 400)" opacity="0.10"></line><line x1="274" y1="400" x2="526" y2="400" transform="rotate(276, 400, 400)" opacity="0.98"></line><line x1="397" y1="400" x2="403" y2="400" transform="rotate(277, 400, 400)" opacity="0.16"></line><line x1="147" y1="400" x2="653" y2="400" transform="rotate(278, 400, 400)" opacity="0.20"></line><line x1="26" y1="400" x2="774" y2="400" transform="rotate(279, 400, 400)" opacity="0.61"></line><line x1="352" y1="400" x2="448" y2="400" transform="rotate(280, 400, 400)" opacity="0.78"></line><line x1="561" y1="400" x2="239" y2="400" transform="rotate(281, 400, 400)" opacity="0.97"></line><line x1="596.5" y1="400" x2="203.5" y2="400" transform="rotate(282, 400, 400)" opacity="0.96"></line><line x1="557" y1="400" x2="243" y2="400" transform="rotate(283, 400, 400)" opacity="0.72"></line><line x1="14" y1="400" x2="786" y2="400" transform="rotate(284, 400, 400)" opacity="0.30"></line><line x1="212" y1="400" x2="588" y2="400" transform="rotate(285, 400, 400)" opacity="0.49"></line><line x1="283" y1="400" x2="517" y2="400" transform="rotate(286, 400, 400)" opacity="0.09"></line><line x1="109" y1="400" x2="691" y2="400" transform="rotate(287, 400, 400)" opacity="0.48"></line><line x1="71" y1="400" x2="729" y2="400" transform="rotate(288, 400, 400)" opacity="0.35"></line><line x1="217" y1="400" x2="583" y2="400" transform="rotate(289, 400, 400)" opacity="0.09"></line><line x1="71" y1="400" x2="729" y2="400" transform="rotate(290, 400, 400)" opacity="0.31"></line><line x1="-21" y1="400" x2="821" y2="400" transform="rotate(291, 400, 400)" opacity="0.38"></line><line x1="29" y1="400" x2="771" y2="400" transform="rotate(292, 400, 400)" opacity="0.45"></line><line x1="79.5" y1="400" x2="720.5" y2="400" transform="rotate(293, 400, 400)" opacity="0.63"></line><line x1="518" y1="400" x2="282" y2="400" transform="rotate(294, 400, 400)" opacity="0.77"></line><line x1="398" y1="400" x2="402" y2="400" transform="rotate(295, 400, 400)" opacity="0.99"></line><line x1="566.5" y1="400" x2="233.5" y2="400" transform="rotate(296, 400, 400)" opacity="0.59"></line><line x1="512.5" y1="400" x2="287.5" y2="400" transform="rotate(297, 400, 400)" opacity="0.98"></line><line x1="442" y1="400" x2="358" y2="400" transform="rotate(298, 400, 400)" opacity="0.36"></line><line x1="567.5" y1="400" x2="232.5" y2="400" transform="rotate(299, 400, 400)" opacity="0.36"></line><line x1="22" y1="400" x2="778" y2="400" transform="rotate(300, 400, 400)" opacity="0.42"></line><line x1="257" y1="400" x2="543" y2="400" transform="rotate(301, 400, 400)" opacity="0.71"></line><line x1="274" y1="400" x2="526" y2="400" transform="rotate(302, 400, 400)" opacity="0.90"></line><line x1="580" y1="400" x2="220" y2="400" transform="rotate(303, 400, 400)" opacity="0.61"></line><line x1="115.5" y1="400" x2="684.5" y2="400" transform="rotate(304, 400, 400)" opacity="0.51"></line><line x1="280.5" y1="400" x2="519.5" y2="400" transform="rotate(305, 400, 400)" opacity="0.90"></line><line x1="81.5" y1="400" x2="718.5" y2="400" transform="rotate(306, 400, 400)" opacity="0.40"></line><line x1="151" y1="400" x2="649" y2="400" transform="rotate(307, 400, 400)" opacity="0.79"></line><line x1="-79" y1="400" x2="879" y2="400" transform="rotate(308, 400, 400)" opacity="0.18"></line><line x1="513.5" y1="400" x2="286.5" y2="400" transform="rotate(309, 400, 400)" opacity="0.21"></line><line x1="433.5" y1="400" x2="366.5" y2="400" transform="rotate(310, 400, 400)" opacity="0.80"></line><line x1="93" y1="400" x2="707" y2="400" transform="rotate(311, 400, 400)" opacity="0.99"></line><line x1="372" y1="400" x2="428" y2="400" transform="rotate(312, 400, 400)" opacity="0.49"></line><line x1="74" y1="400" x2="726" y2="400" transform="rotate(313, 400, 400)" opacity="0.89"></line><line x1="325" y1="400" x2="475" y2="400" transform="rotate(314, 400, 400)" opacity="0.48"></line><line x1="179.5" y1="400" x2="620.5" y2="400" transform="rotate(315, 400, 400)" opacity="0.63"></line><line x1="186" y1="400" x2="614" y2="400" transform="rotate(316, 400, 400)" opacity="0.84"></line><line x1="580.5" y1="400" x2="219.5" y2="400" transform="rotate(317, 400, 400)" opacity="0.72"></line><line x1="156.5" y1="400" x2="643.5" y2="400" transform="rotate(318, 400, 400)" opacity="0.80"></line><line x1="85.5" y1="400" x2="714.5" y2="400" transform="rotate(319, 400, 400)" opacity="0.60"></line><line x1="-128" y1="400" x2="928" y2="400" transform="rotate(320, 400, 400)" opacity="0.80"></line><line x1="151.5" y1="400" x2="648.5" y2="400" transform="rotate(321, 400, 400)" opacity="0.25"></line><line x1="122.5" y1="400" x2="677.5" y2="400" transform="rotate(322, 400, 400)" opacity="0.20"></line><line x1="458" y1="400" x2="342" y2="400" transform="rotate(323, 400, 400)" opacity="0.37"></line><line x1="-110" y1="400" x2="910" y2="400" transform="rotate(324, 400, 400)" opacity="0.23"></line><line x1="241.5" y1="400" x2="558.5" y2="400" transform="rotate(325, 400, 400)" opacity="0.86"></line><line x1="-110" y1="400" x2="910" y2="400" transform="rotate(326, 400, 400)" opacity="0.83"></line><line x1="606" y1="400" x2="194" y2="400" transform="rotate(327, 400, 400)" opacity="0.71"></line><line x1="582.5" y1="400" x2="217.5" y2="400" transform="rotate(328, 400, 400)" opacity="0.26"></line><line x1="444" y1="400" x2="356" y2="400" transform="rotate(329, 400, 400)" opacity="0.77"></line><line x1="353.5" y1="400" x2="446.5" y2="400" transform="rotate(330, 400, 400)" opacity="0.93"></line><line x1="-125" y1="400" x2="925" y2="400" transform="rotate(331, 400, 400)" opacity="0.37"></line><line x1="4" y1="400" x2="796" y2="400" transform="rotate(332, 400, 400)" opacity="0.14"></line></g></svg>