<svg xmlns="http://www.w3.org/2000/svg" version="1.1" xmlns:xlink="http://www.w3.org/1999/xlink" xmlns:svgjs="http://svgjs.dev/svgjs" viewBox="0 0 800 800"><g fill="none" stroke-width="0.5" stroke="#6f5cf3" stroke-linecap="round"><line x1="342.5" y1="400" x2="457.5" y2="400" transform="rotate(0, 400, 400)" opacity="0.62"></line><line x1="143" y1="400" x2="657" y2="400" transform="rotate(3, 400, 400)" opacity="0.13"></line><line x1="94" y1="400" x2="706" y2="400" transform="rotate(6, 400, 400)" opacity="0.99"></line><line x1="430" y1="400" x2="370" y2="400" transform="rotate(9, 400, 400)" opacity="0.29"></line><line x1="46.5" y1="400" x2="753.5" y2="400" transform="rotate(12, 400, 400)" opacity="0.78"></line><line x1="321" y1="400" x2="479" y2="400" transform="rotate(15, 400, 400)" opacity="0.42"></line><line x1="639" y1="400" x2="161" y2="400" transform="rotate(18, 400, 400)" opacity="0.85"></line><line x1="81" y1="400" x2="719" y2="400" transform="rotate(21, 400, 400)" opacity="0.36"></line><line x1="420" y1="400" x2="380" y2="400" transform="rotate(24, 400, 400)" opacity="0.90"></line><line x1="761" y1="400" x2="39" y2="400" transform="rotate(27, 400, 400)" opacity="0.64"></line><line x1="597" y1="400" x2="203" y2="400" transform="rotate(30, 400, 400)" opacity="0.90"></line><line x1="438" y1="400" x2="362" y2="400" transform="rotate(33, 400, 400)" opacity="0.92"></line><line x1="350.5" y1="400" x2="449.5" y2="400" transform="rotate(36, 400, 400)" opacity="0.79"></line><line x1="218" y1="400" x2="582" y2="400" transform="rotate(39, 400, 400)" opacity="0.25"></line><line x1="-9.5" y1="400" x2="809.5" y2="400" transform="rotate(42, 400, 400)" opacity="0.83"></line><line x1="598.5" y1="400" x2="201.5" y2="400" transform="rotate(45, 400, 400)" opacity="0.67"></line><line x1="-50" y1="400" x2="850" y2="400" transform="rotate(48, 400, 400)" opacity="0.14"></line><line x1="685.5" y1="400" x2="114.5" y2="400" transform="rotate(51, 400, 400)" opacity="0.89"></line><line x1="-35" y1="400" x2="835" y2="400" transform="rotate(54, 400, 400)" opacity="0.10"></line><line x1="-98" y1="400" x2="898" y2="400" transform="rotate(57, 400, 400)" opacity="0.22"></line><line x1="637.5" y1="400" x2="162.5" y2="400" transform="rotate(60, 400, 400)" opacity="0.44"></line><line x1="118.5" y1="400" x2="681.5" y2="400" transform="rotate(63, 400, 400)" opacity="0.11"></line><line x1="464.5" y1="400" x2="335.5" y2="400" transform="rotate(66, 400, 400)" opacity="0.30"></line><line x1="-52" y1="400" x2="852" y2="400" transform="rotate(69, 400, 400)" opacity="0.96"></line><line x1="520.5" y1="400" x2="279.5" y2="400" transform="rotate(72, 400, 400)" opacity="0.89"></line><line x1="-98" y1="400" x2="898" y2="400" transform="rotate(75, 400, 400)" opacity="0.38"></line><line x1="639.5" y1="400" x2="160.5" y2="400" transform="rotate(78, 400, 400)" opacity="0.54"></line><line x1="581.5" y1="400" x2="218.5" y2="400" transform="rotate(81, 400, 400)" opacity="0.50"></line><line x1="229.5" y1="400" x2="570.5" y2="400" transform="rotate(84, 400, 400)" opacity="0.31"></line><line x1="577" y1="400" x2="223" y2="400" transform="rotate(87, 400, 400)" opacity="0.75"></line><line x1="28" y1="400" x2="772" y2="400" transform="rotate(90, 400, 400)" opacity="0.37"></line><line x1="733.5" y1="400" x2="66.5" y2="400" transform="rotate(93, 400, 400)" opacity="0.20"></line><line x1="710" y1="400" x2="90" y2="400" transform="rotate(96, 400, 400)" opacity="0.62"></line><line x1="744.5" y1="400" x2="55.5" y2="400" transform="rotate(99, 400, 400)" opacity="0.17"></line><line x1="588.5" y1="400" x2="211.5" y2="400" transform="rotate(102, 400, 400)" opacity="0.52"></line><line x1="266.5" y1="400" x2="533.5" y2="400" transform="rotate(105, 400, 400)" opacity="0.58"></line><line x1="-93" y1="400" x2="893" y2="400" transform="rotate(108, 400, 400)" opacity="0.93"></line><line x1="255.5" y1="400" x2="544.5" y2="400" transform="rotate(111, 400, 400)" opacity="0.21"></line><line x1="248" y1="400" x2="552" y2="400" transform="rotate(114, 400, 400)" opacity="0.83"></line><line x1="233.5" y1="400" x2="566.5" y2="400" transform="rotate(117, 400, 400)" opacity="0.35"></line><line x1="53.5" y1="400" x2="746.5" y2="400" transform="rotate(120, 400, 400)" opacity="0.92"></line><line x1="233" y1="400" x2="567" y2="400" transform="rotate(123, 400, 400)" opacity="0.62"></line><line x1="204.5" y1="400" x2="595.5" y2="400" transform="rotate(126, 400, 400)" opacity="0.16"></line><line x1="89" y1="400" x2="711" y2="400" transform="rotate(129, 400, 400)" opacity="0.71"></line><line x1="40.5" y1="400" x2="759.5" y2="400" transform="rotate(132, 400, 400)" opacity="0.91"></line><line x1="233" y1="400" x2="567" y2="400" transform="rotate(135, 400, 400)" opacity="0.54"></line><line x1="13.5" y1="400" x2="786.5" y2="400" transform="rotate(138, 400, 400)" opacity="0.23"></line><line x1="212.5" y1="400" x2="587.5" y2="400" transform="rotate(141, 400, 400)" opacity="0.37"></line><line x1="503.5" y1="400" x2="296.5" y2="400" transform="rotate(144, 400, 400)" opacity="0.37"></line><line x1="544" y1="400" x2="256" y2="400" transform="rotate(147, 400, 400)" opacity="0.92"></line><line x1="407" y1="400" x2="393" y2="400" transform="rotate(150, 400, 400)" opacity="0.42"></line><line x1="286.5" y1="400" x2="513.5" y2="400" transform="rotate(153, 400, 400)" opacity="0.22"></line><line x1="243" y1="400" x2="557" y2="400" transform="rotate(156, 400, 400)" opacity="0.32"></line><line x1="607" y1="400" x2="193" y2="400" transform="rotate(159, 400, 400)" opacity="0.54"></line><line x1="661" y1="400" x2="139" y2="400" transform="rotate(162, 400, 400)" opacity="0.22"></line><line x1="45.5" y1="400" x2="754.5" y2="400" transform="rotate(165, 400, 400)" opacity="0.93"></line><line x1="708.5" y1="400" x2="91.5" y2="400" transform="rotate(168, 400, 400)" opacity="0.76"></line><line x1="379.5" y1="400" x2="420.5" y2="400" transform="rotate(171, 400, 400)" opacity="0.11"></line><line x1="508" y1="400" x2="292" y2="400" transform="rotate(174, 400, 400)" opacity="0.36"></line><line x1="731.5" y1="400" x2="68.5" y2="400" transform="rotate(177, 400, 400)" opacity="0.65"></line><line x1="186.5" y1="400" x2="613.5" y2="400" transform="rotate(180, 400, 400)" opacity="0.75"></line><line x1="186" y1="400" x2="614" y2="400" transform="rotate(183, 400, 400)" opacity="0.86"></line><line x1="674" y1="400" x2="126" y2="400" transform="rotate(186, 400, 400)" opacity="0.38"></line><line x1="477" y1="400" x2="323" y2="400" transform="rotate(189, 400, 400)" opacity="0.16"></line><line x1="452" y1="400" x2="348" y2="400" transform="rotate(192, 400, 400)" opacity="0.52"></line><line x1="726.5" y1="400" x2="73.5" y2="400" transform="rotate(195, 400, 400)" opacity="0.57"></line><line x1="131" y1="400" x2="669" y2="400" transform="rotate(198, 400, 400)" opacity="0.86"></line><line x1="513" y1="400" x2="287" y2="400" transform="rotate(201, 400, 400)" opacity="0.25"></line><line x1="502" y1="400" x2="298" y2="400" transform="rotate(204, 400, 400)" opacity="0.45"></line><line x1="66.5" y1="400" x2="733.5" y2="400" transform="rotate(207, 400, 400)" opacity="0.15"></line><line x1="474" y1="400" x2="326" y2="400" transform="rotate(210, 400, 400)" opacity="0.67"></line><line x1="463.5" y1="400" x2="336.5" y2="400" transform="rotate(213, 400, 400)" opacity="0.85"></line><line x1="683" y1="400" x2="117" y2="400" transform="rotate(216, 400, 400)" opacity="0.90"></line><line x1="61.5" y1="400" x2="738.5" y2="400" transform="rotate(219, 400, 400)" opacity="0.51"></line><line x1="715" y1="400" x2="85" y2="400" transform="rotate(222, 400, 400)" opacity="0.90"></line><line x1="753" y1="400" x2="47" y2="400" transform="rotate(225, 400, 400)" opacity="0.60"></line><line x1="-59.5" y1="400" x2="859.5" y2="400" transform="rotate(228, 400, 400)" opacity="0.66"></line><line x1="33" y1="400" x2="767" y2="400" transform="rotate(231, 400, 400)" opacity="0.26"></line><line x1="567" y1="400" x2="233" y2="400" transform="rotate(234, 400, 400)" opacity="0.91"></line><line x1="112" y1="400" x2="688" y2="400" transform="rotate(237, 400, 400)" opacity="0.49"></line><line x1="-21" y1="400" x2="821" y2="400" transform="rotate(240, 400, 400)" opacity="0.16"></line><line x1="45.5" y1="400" x2="754.5" y2="400" transform="rotate(243, 400, 400)" opacity="0.37"></line><line x1="-24.5" y1="400" x2="824.5" y2="400" transform="rotate(246, 400, 400)" opacity="0.87"></line><line x1="277.5" y1="400" x2="522.5" y2="400" transform="rotate(249, 400, 400)" opacity="0.45"></line><line x1="455" y1="400" x2="345" y2="400" transform="rotate(252, 400, 400)" opacity="0.24"></line><line x1="14" y1="400" x2="786" y2="400" transform="rotate(255, 400, 400)" opacity="0.58"></line><line x1="403.5" y1="400" x2="396.5" y2="400" transform="rotate(258, 400, 400)" opacity="0.12"></line><line x1="487.5" y1="400" x2="312.5" y2="400" transform="rotate(261, 400, 400)" opacity="0.28"></line><line x1="32" y1="400" x2="768" y2="400" transform="rotate(264, 400, 400)" opacity="0.84"></line><line x1="107.5" y1="400" x2="692.5" y2="400" transform="rotate(267, 400, 400)" opacity="0.29"></line><line x1="308" y1="400" x2="492" y2="400" transform="rotate(270, 400, 400)" opacity="0.07"></line><line x1="401.5" y1="400" x2="398.5" y2="400" transform="rotate(273, 400, 400)" opacity="0.86"></line><line x1="730" y1="400" x2="70" y2="400" transform="rotate(276, 400, 400)" opacity="0.98"></line><line x1="710" y1="400" x2="90" y2="400" transform="rotate(279, 400, 400)" opacity="0.19"></line><line x1="233.5" y1="400" x2="566.5" y2="400" transform="rotate(282, 400, 400)" opacity="0.70"></line><line x1="83.5" y1="400" x2="716.5" y2="400" transform="rotate(285, 400, 400)" opacity="0.39"></line><line x1="605.5" y1="400" x2="194.5" y2="400" transform="rotate(288, 400, 400)" opacity="0.99"></line><line x1="255" y1="400" x2="545" y2="400" transform="rotate(291, 400, 400)" opacity="0.49"></line><line x1="752.5" y1="400" x2="47.5" y2="400" transform="rotate(294, 400, 400)" opacity="0.45"></line><line x1="301" y1="400" x2="499" y2="400" transform="rotate(297, 400, 400)" opacity="0.96"></line><line x1="667" y1="400" x2="133" y2="400" transform="rotate(300, 400, 400)" opacity="0.66"></line><line x1="-13" y1="400" x2="813" y2="400" transform="rotate(303, 400, 400)" opacity="0.34"></line><line x1="13" y1="400" x2="787" y2="400" transform="rotate(306, 400, 400)" opacity="0.13"></line><line x1="601" y1="400" x2="199" y2="400" transform="rotate(309, 400, 400)" opacity="0.81"></line><line x1="727" y1="400" x2="73" y2="400" transform="rotate(312, 400, 400)" opacity="0.24"></line><line x1="686.5" y1="400" x2="113.5" y2="400" transform="rotate(315, 400, 400)" opacity="0.84"></line><line x1="-105.5" y1="400" x2="905.5" y2="400" transform="rotate(318, 400, 400)" opacity="0.38"></line><line x1="726" y1="400" x2="74" y2="400" transform="rotate(321, 400, 400)" opacity="0.08"></line><line x1="698.5" y1="400" x2="101.5" y2="400" transform="rotate(324, 400, 400)" opacity="0.13"></line><line x1="38" y1="400" x2="762" y2="400" transform="rotate(327, 400, 400)" opacity="0.19"></line></g></svg>